<?xml version="1.0" encoding="UTF-8" standalone="no"?>
<svg
   xmlns:dc="http://purl.org/dc/elements/1.1/"
   xmlns:cc="http://creativecommons.org/ns#"
   xmlns:rdf="http://www.w3.org/1999/02/22-rdf-syntax-ns#"
   xmlns:svg="http://www.w3.org/2000/svg"
   xmlns="http://www.w3.org/2000/svg"
   xmlns:sodipodi="http://sodipodi.sourceforge.net/DTD/sodipodi-0.dtd"
   xmlns:inkscape="http://www.inkscape.org/namespaces/inkscape"
   viewBox="0 0 511.99999 285.35657"
   height="285.35657"
   width="512"
   xml:space="preserve"
   version="1.1"
   id="svg2"
   inkscape:version="0.91 r13725"
   sodipodi:docname="mediashop-square.svg"><sodipodi:namedview
     pagecolor="#ffffff"
     bordercolor="#666666"
     borderopacity="1"
     objecttolerance="10"
     gridtolerance="10"
     guidetolerance="10"
     inkscape:pageopacity="0"
     inkscape:pageshadow="2"
     inkscape:window-width="1680"
     inkscape:window-height="986"
     id="namedview19"
     showgrid="false"
     fit-margin-top="0"
     fit-margin-left="0"
     fit-margin-right="0"
     fit-margin-bottom="0"
     showborder="true"
     inkscape:zoom="1.0697945"
     inkscape:cx="312.93585"
     inkscape:cy="204.96196"
     inkscape:window-x="0"
     inkscape:window-y="150"
     inkscape:window-maximized="1"
     inkscape:current-layer="svg2" /><metadata
     id="metadata8"><rdf:RDF><cc:Work
         rdf:about=""><dc:format>image/svg+xml</dc:format><dc:type
           rdf:resource="http://purl.org/dc/dcmitype/StillImage" /><dc:title></dc:title></cc:Work></rdf:RDF></metadata><defs
     id="defs6" /><g
     transform="matrix(0.61568924,0,0,-0.61568924,-66.874826,359.99473)"
     id="g10"><g
       transform="scale(0.1,0.1)"
       id="g12"><path
         id="path14"
         style="fill:#0994dc;fill-opacity:1;fill-rule:nonzero;stroke:none"
         d="m 6989.73,4101.38 c 0,-964.08 -781.54,-1745.62 -1745.63,-1745.62 -964.08,0 -1745.62,781.54 -1745.62,1745.62 0,964.1 781.54,1745.64 1745.62,1745.64 964.09,0 1745.63,-781.54 1745.63,-1745.64"
         inkscape:connector-curvature="0" /><path
         id="path16"
         style="fill:#fff30a;fill-opacity:1;fill-rule:nonzero;stroke:none"
         d="m 4596.06,3289.46 -517.08,0 174.45,1787.42 c 16.6,170.8 53.4,292.59 110.6,365.48 57.03,72.87 162.43,109.38 316.12,109.38 220.1,0 349.86,-133.32 389.37,-399.89 l 158.87,-1052.61 15.52,0 158.85,1052.61 c 20.75,135.35 63.87,235.87 129.27,301.42 65.45,65.66 152.14,98.47 260.06,98.47 155.76,0 261.7,-35.48 317.78,-106.2 56.03,-70.81 92.34,-193.69 109,-368.66 l 174.46,-1787.42 -517.09,0 -102.8,1768.67 -267.9,-1486.83 c -14.56,-83.31 -46.75,-151.03 -96.58,-203.07 -49.78,-52.1 -108,-78.05 -174.39,-78.05 -68.51,0 -126.65,24.94 -174.43,74.95 -47.79,49.98 -79.97,118.64 -96.53,206.17 l -267.88,1486.83 -99.67,-1768.67"
         inkscape:connector-curvature="0" /><path
         id="path18"
         style="fill:#ffffff;fill-opacity:1;fill-rule:nonzero;stroke:none"
         d="m 4206.68,2921.63 -91.24,248.84 c -3.66,9.78 -7.33,19.55 -10.58,29.33 0.41,-11.01 0.41,-22 0.41,-32.99 0,0 -4.89,-237.04 -4.89,-245.18 l -24.43,0 c 0,0 6.51,276.94 6.92,287.53 l 48.05,0 c 78.19,-220.32 83.5,-234.57 88.8,-251.69 5.69,17.12 11.4,30.55 90.8,251.69 l 48.48,0 c 0,0 2.84,-280.62 3.25,-287.53 l -26.46,0 c 0,7.32 -3.26,243.14 -3.26,243.14 0,11.82 -0.41,23.63 -0.82,35.03 -4.48,-11.4 -8.55,-24.03 -12.63,-35.84 l -89.18,-242.33 -23.22,0"
         inkscape:connector-curvature="0" /><path
         id="path20"
         style="fill:#ffffff;fill-opacity:1;fill-rule:nonzero;stroke:none"
         d="m 4437.09,2921.63 0,287.53 151.91,0 0,-21.58 -123.81,0 0,-105.48 113.64,0 0,-21.6 -113.64,0 0,-117.28 134.8,0 0,-21.59 -162.9,0"
         inkscape:connector-curvature="0" /><path
         id="path22"
         style="fill:#ffffff;fill-opacity:1;fill-rule:nonzero;stroke:none"
         d="m 4650.84,3209.17 97.34,0 c 76.56,0 119.73,-41.55 119.73,-143.77 0,-134.81 -78.61,-143.76 -144.97,-143.76 l -72.1,0 0,287.53 z m 91.24,-265.96 c 88.78,0 98.16,70.46 98.16,123.4 0,68.03 -17.94,121.37 -99.8,121.37 l -62.31,0 0,-244.77 63.95,0"
         inkscape:connector-curvature="0" /><path
         id="path24"
         style="fill:#ffffff;fill-opacity:1;fill-rule:nonzero;stroke:none"
         d="m 4932.6,2921.64 27.2891,0 0,287.52 -27.2891,0 0,-287.52 z"
         inkscape:connector-curvature="0" /><path
         id="path26"
         style="fill:#ffffff;fill-opacity:1;fill-rule:nonzero;stroke:none"
         d="m 5228.65,2921.63 -42.35,118.53 -107.94,0 -49.28,-118.53 -26.88,0 122.6,287.53 26.88,0 106.7,-287.53 -29.73,0 z m -93.67,256.98 -48.07,-118.11 90.42,0 -42.35,118.11"
         inkscape:connector-curvature="0" /><path
         id="path28"
         style="fill:#ffffff;fill-opacity:1;fill-rule:nonzero;stroke:none"
         d="m 5502.26,3131.38 c 0,0 -51.32,0.82 -64.74,0.82 0,21.17 -4.9,45.19 -39.51,45.19 -33,0 -40.74,-22.8 -40.74,-34.2 0,-22.8 22.83,-31.77 46.04,-39.1 l 23.6,-7.32 c 53.37,-16.71 81.45,-38.3 81.45,-87.58 0,-69.64 -54.16,-93.67 -110.35,-93.67 -82.28,0 -118.53,29.74 -118.53,86.34 l 0,6.53 c 14.25,-0.41 62.72,-0.81 70.05,-0.81 l 0,-3.28 c 0,-23.22 7.33,-50.5 46.42,-50.5 40.34,0 43.59,31.36 43.59,41.14 0,25.24 -15.89,31.77 -48.05,42.35 l -18.75,6.11 c -51.71,16.7 -84.71,33.82 -84.71,85.13 0,59.45 43.18,86.75 111.21,86.75 71.66,0 103.02,-24.84 103.02,-79.83 l 0,-4.07"
         inkscape:connector-curvature="0" /><path
         id="path30"
         style="fill:#ffffff;fill-opacity:1;fill-rule:nonzero;stroke:none"
         d="m 5726.99,2921.63 0,129.11 -87.55,0 0,-129.11 -74.12,0 0,287.53 74.12,0 0,-113.22 87.55,0 0,113.22 74.13,0 0,-287.53 -74.13,0"
         inkscape:connector-curvature="0" /><path
         id="path32"
         style="fill:#ffffff;fill-opacity:1;fill-rule:nonzero;stroke:none"
         d="m 5977.8,2915.12 c -92.06,0 -130.33,34.62 -130.33,145 0,78.99 14.68,155.57 135.22,155.57 102.21,0 128.27,-52.55 128.27,-139.69 0,-110.38 -32.97,-160.88 -133.16,-160.88 m 3.25,262.29 c -54.57,0 -57.41,-58.26 -57.41,-123.01 0,-79.01 14.24,-101 54.98,-101 40.3,0 56.19,27.28 56.19,118.91 0,56.62 -3.25,105.1 -53.76,105.1"
         inkscape:connector-curvature="0" /><path
         id="path34"
         style="fill:#ffffff;fill-opacity:1;fill-rule:nonzero;stroke:none"
         d="m 6238.36,2921.63 -74.12,0 0,287.53 122.18,0 c 54.98,0 101,-6.92 101,-91.22 0,-67.61 -36.66,-92.05 -99.77,-92.05 l -49.29,0 0,-104.26 z m 24.44,142.54 c 35.02,0 51.73,9.78 51.73,55.39 0,33.82 -11.82,51.32 -46.04,51.32 l -30.13,0 0,-106.71 24.44,0"
         inkscape:connector-curvature="0" /><path
         id="path36"
         style="fill:#0994dc;fill-opacity:1;fill-rule:nonzero;stroke:none"
         d="m 1197.24,1732.84 c -9.09,-124.64 -13.61,-217.88 -13.61,-279.78 0,-41.27 4.31,-74.09 12.99,-98.43 8.66,-24.36 30.34,-46.86 64.99,-67.47 12.8,-8.67 21.46,-13.02 26,-13.02 2.48,0 3.71,1.25 3.71,3.73 0,4.54 -4.75,15.07 -14.23,31.56 -11.56,25.18 -17.34,62.73 -17.34,112.67 0,15.25 0.82,31.78 2.48,49.52 5.78,128.76 26.41,328.49 61.9,599.21 6.2,16.5 9.3,30.53 9.3,42.09 0,22.29 -11.77,33.43 -35.29,33.43 -34.27,0 -55.73,-17.34 -64.38,-52 -8.66,-34.65 -20.84,-155.16 -36.52,-361.51 m 260.5,-466.9 c 49.05,0 89.85,44.93 122.39,134.77 32.55,89.87 55.42,134.78 68.64,134.78 16.97,0 29.11,-24.75 36.44,-74.29 7.31,-49.52 12.49,-89.02 15.56,-118.51 3.07,-29.47 16.38,-44.2 39.98,-44.2 16.03,0 32.42,20.15 49.17,60.48 16.74,40.33 36.91,60.49 60.49,60.49 34.43,-1.88 58.38,-25.95 71.81,-72.16 13.45,-46.24 26.3,-69.35 38.56,-69.35 11.33,0 17.82,3.66 19.47,10.98 1.64,7.3 2.48,21.1 2.48,41.38 0,37.26 -10.87,77.24 -32.55,119.94 -21.7,42.68 -56.15,65.44 -103.31,68.27 -30.18,0 -57.07,-17.69 -80.66,-53.06 -7.55,45.28 -18.75,84.76 -33.61,118.5 -14.84,33.72 -35.72,50.59 -62.6,50.59 -72.65,-5.65 -134.92,-92.69 -186.79,-261.08 -1.42,0 -2.13,4.25 -2.13,12.75 0,70.74 25.47,228.98 76.42,474.75 -61.34,0 -97.89,-21.22 -109.67,-63.69 -36.8,-165.09 -55.18,-295.5 -55.18,-391.26 0,-89.16 21.67,-135.84 65.09,-140.08 m 664.23,0 c 49.05,0 89.84,44.93 122.39,134.77 32.55,89.87 55.42,134.78 68.64,134.78 16.97,0 29.11,-24.75 36.44,-74.29 7.31,-49.52 12.49,-89.02 15.55,-118.51 3.07,-29.47 16.4,-44.2 39.98,-44.2 16.03,0 32.43,20.15 49.17,60.48 16.75,40.33 36.91,60.49 60.5,60.49 34.43,-1.88 58.38,-25.95 71.82,-72.16 13.44,-46.24 26.29,-69.35 38.55,-69.35 11.32,0 17.81,3.66 19.47,10.98 1.64,7.3 2.48,21.1 2.48,41.38 0,37.26 -10.87,77.24 -32.55,119.94 -21.7,42.68 -56.16,65.44 -103.3,68.27 -30.19,0 -57.09,-17.69 -80.67,-53.06 -7.56,45.28 -18.75,84.76 -33.59,118.5 -14.86,33.72 -35.74,50.59 -62.62,50.59 -72.65,-5.65 -134.92,-92.69 -186.8,-261.08 -1.41,0 -2.12,4.25 -2.12,12.75 0,70.74 25.48,228.98 76.41,474.75 -61.33,0 -97.89,-21.22 -109.66,-63.69 -36.8,-165.09 -55.19,-295.5 -55.19,-391.26 0,-89.16 21.68,-135.84 65.1,-140.08 m 681.2,228.52 c -3.3,-4.26 -4.96,-7.55 -4.96,-9.9 0,-3.32 3.3,-4.95 9.91,-4.95 11.32,0 36.31,4.71 75,14.14 63.68,19.35 116.28,46 157.79,79.96 41.49,33.96 64.85,72.16 70.03,114.61 0,25.94 -9.54,45.63 -28.64,59.08 -19.12,13.45 -43.29,20.16 -72.53,20.16 -88.67,0 -161.79,-26.65 -219.34,-79.93 -57.54,-53.33 -86.32,-127.14 -86.32,-221.48 5.67,-69.32 29.03,-120.75 70.05,-154.24 41.04,-33.49 90.32,-50.23 147.88,-50.23 60.83,0 110.95,11.19 150.35,33.61 39.37,22.4 67.09,44.21 83.13,65.44 16.03,21.23 24.06,33.97 24.06,38.22 0,5.18 -1.42,7.78 -4.24,7.78 -2.37,0 -11.81,-6.37 -28.31,-19.1 -55.19,-35.86 -117.69,-55.9 -187.49,-60.14 -48.11,0 -87.63,13.67 -118.53,41.03 -30.89,27.36 -46.32,62.26 -46.32,104.72 0,77.36 21.1,138.07 63.32,182.19 42.21,44.09 87.61,66.15 136.19,66.15 24.07,0 36.09,-11.32 36.09,-33.95 -0.95,-37.75 -35.38,-76.07 -103.3,-114.98 -67.92,-38.92 -109.21,-64.98 -123.82,-78.19 m 407.4,182.89 c 8,-34.21 12.02,-89.03 12.02,-164.5 0,-26.88 -1.66,-54.25 -4.94,-82.07 -3.32,-27.84 -4.95,-57.07 -4.95,-87.73 0,-42.45 8.72,-63.69 26.16,-63.69 15.58,0 29.25,4.96 41.04,14.87 11.79,9.9 18.63,45.99 20.51,108.24 1.89,62.28 20.29,117.93 55.19,166.98 34.91,49.07 74.76,79.95 119.59,92.69 44.79,12.73 67.21,25.24 67.21,37.5 0,5.67 -3.42,13.2 -10.26,22.64 -6.84,9.44 -28.19,14.15 -64.03,14.15 -57.07,-1.89 -113.45,-39.15 -169.11,-111.79 0,96.23 -22.4,144.33 -67.21,144.33 -19.81,0 -30.9,-7.54 -33.26,-22.63 0,-11.8 4.01,-34.79 12.04,-68.99 m 820.45,-182.89 c -3.31,-4.26 -4.95,-7.55 -4.95,-9.9 0,-3.32 3.3,-4.95 9.91,-4.95 11.32,0 36.31,4.71 74.98,14.14 63.69,19.35 116.27,46 157.79,79.96 41.49,33.96 64.85,72.16 70.05,114.61 0,25.94 -9.56,45.63 -28.66,59.08 -19.1,13.45 -43.28,20.16 -72.53,20.16 -88.68,0 -161.8,-26.65 -219.32,-79.93 -57.56,-53.33 -86.32,-127.14 -86.32,-221.48 5.65,-69.32 29,-120.75 70.05,-154.24 41.02,-33.49 90.31,-50.23 147.86,-50.23 60.85,0 110.97,11.19 150.35,33.61 39.39,22.4 67.1,44.21 83.13,65.44 16.03,21.23 24.05,33.97 24.05,38.22 0,5.18 -1.41,7.78 -4.23,7.78 -2.38,0 -11.8,-6.37 -28.31,-19.1 -55.17,-35.86 -117.69,-55.9 -187.49,-60.14 -48.11,0 -87.62,13.67 -118.51,41.03 -30.9,27.36 -46.34,62.26 -46.34,104.72 0,77.36 21.11,138.07 63.31,182.19 42.21,44.09 87.62,66.15 136.21,66.15 24.06,0 36.09,-11.32 36.09,-33.95 -0.96,-37.75 -35.39,-76.07 -103.31,-114.98 -67.92,-38.92 -109.19,-64.98 -123.81,-78.19 m 511.56,240.25 c -47.47,0 -97.4,-6.41 -149.8,-19.2 -7.02,0 -14.76,-9.28 -23.22,-27.84 -8.45,-18.59 -12.69,-34.27 -12.69,-47.06 0.41,-4.96 6.61,-7.44 18.57,-7.44 l 159.71,30.35 c -2.89,-40.02 -4.34,-77.59 -4.34,-112.66 0,-114.74 10.01,-199.85 30.03,-255.34 20,-55.5 33.94,-83.25 41.78,-83.25 2.89,0 4.55,5.15 4.96,15.46 -0.84,22.28 -2.07,83.34 -3.73,183.22 0,62.31 5.16,149.8 15.47,262.47 33.84,3.71 90.58,13.82 170.24,30.34 28.47,5.77 42.72,10.72 42.72,14.83 0,9.51 -68.08,15.89 -204.27,19.21 13.61,138.66 34.65,278.56 63.13,419.68 -59.43,0 -94.19,-28.88 -104.3,-86.65 -10.11,-57.78 -24.87,-169.82 -44.26,-336.12 m 411.64,-468.77 c 54.23,0 115.56,41.27 183.95,123.8 44.81,-64.15 84.2,-96.22 118.16,-96.22 36.31,0 71.46,29.96 105.42,89.85 33.96,59.9 55.66,161.55 65.09,304.95 -76.41,-194.35 -133.95,-291.49 -172.62,-291.49 -25.96,11.31 -49.07,35.84 -69.36,73.58 17.46,55.64 26.18,117.67 26.18,186.08 0,9.91 -0.24,20.04 -0.69,30.42 l -72.18,-161.3 c -20.76,38.19 -39.16,81.1 -55.19,128.75 -33.96,-0.94 -56.6,-13.7 -67.92,-38.2 23.11,-58.97 48.58,-113.22 76.42,-162.73 -45.75,-59.44 -87.27,-89.15 -124.52,-89.15 -35.87,2.82 -76.42,117.91 -121.7,345.27 -2.38,9.43 -11.57,14.14 -27.6,14.14 -16.05,0 -28.55,-3.17 -37.5,-9.53 -8.97,-6.37 -13.45,-15.93 -13.45,-28.66 55.19,-273.59 117.69,-413.45 187.51,-419.56 m 850.31,252.58 c 18.4,0 33.6,5.42 45.62,16.27 12.04,10.85 18.06,42.21 18.06,94.11 0,46.69 -9.8,83.36 -29.37,110.01 -19.57,26.65 -47.05,39.98 -82.42,39.98 -92,0 -163.21,-36.57 -213.69,-109.67 -50.47,-73.12 -76.65,-141.04 -78.52,-203.76 0,-52.83 11.78,-98.49 35.37,-136.91 23.58,-38.46 54.47,-57.66 92.68,-57.66 57.07,0 109.79,25.47 158.14,76.41 48.33,50.93 79.12,76.4 92.32,76.4 24.52,0 48.35,-16.02 71.47,-48.1 23.1,-32.08 39.16,-48.11 48.12,-48.11 4.71,0 7.78,1.88 9.19,5.64 1.42,3.77 2.13,7.32 2.13,10.63 0,18.86 -11.81,50.34 -35.39,94.45 -23.58,44.09 -54.72,67.1 -93.39,68.99 -35.37,0 -75.7,-22.88 -120.98,-68.64 -45.28,-45.75 -80.43,-68.62 -105.43,-68.62 -37.27,1.87 -56.15,36.54 -56.6,104 0,44.8 18.75,94.57 56.24,149.28 37.5,54.72 74.88,82.09 112.15,82.09 30.65,0 49.05,-27.15 55.2,-81.37 1.4,-70.3 7.77,-105.42 19.1,-105.42 m 466.1,241.26 c -43.86,12.74 -78.99,19.11 -105.42,19.11 -29.25,0 -59.67,-8.03 -91.26,-24.06 -31.6,-16.05 -47.4,-39.38 -47.4,-70.05 0,-15.56 5.77,-37.85 17.33,-66.86 11.55,-29 48.11,-77.23 109.66,-144.68 61.56,-67.47 92.35,-112.26 92.35,-134.43 l 0,-1.42 c -12.29,-9.45 -25.74,-14.16 -40.35,-14.16 -10.85,0 -31.61,4.02 -62.25,12.03 -30.67,8.01 -57.32,25.72 -79.96,53.07 -8.02,8.96 -13.43,13.45 -16.27,13.45 -1.42,0 -2.11,-1.42 -2.11,-4.24 0,-12.76 4.71,-28.09 14.15,-46 25.46,-39.63 54.81,-66.76 88.08,-81.36 33.25,-14.62 59.55,-21.93 78.89,-21.93 26.88,0 51.99,7.77 75.35,23.33 23.34,15.58 35.03,34.68 35.03,57.33 0,47.62 -33.96,107.17 -101.88,178.64 -67.94,71.46 -101.91,124.17 -101.91,158.13 0,20.29 23.12,32.08 69.36,35.37 58.95,0 108.25,-19.1 147.86,-57.29 22.17,-19.82 36.31,-29.73 42.45,-29.73 2.36,0 3.55,1.42 3.55,4.24 0,6.14 -6.37,19.57 -19.11,40.33 -26.89,54.72 -62.26,88.45 -106.14,101.18 m 628.96,4.02 c 41.27,-118.04 87.49,-220.49 138.67,-307.35 51.17,-86.87 109.76,-130.29 175.8,-130.29 69.34,5.34 115.56,60.34 138.66,164.95 23.12,104.62 34.66,247.91 34.66,429.91 0,39.62 -0.82,81.7 -2.47,126.29 -42.5,0 -68.5,-18.56 -78,-55.72 1.25,-33.02 1.87,-64.37 1.87,-94.08 0,-154.35 -7.34,-277 -21.99,-368.02 -14.65,-90.99 -42.19,-136.49 -82.64,-136.49 -31.36,0 -68.5,41.79 -111.42,125.36 -42.93,83.55 -87.28,187.87 -133.07,312.91 -45.82,125.03 -68.72,199.11 -68.72,222.23 l 0,8.66 c 0,16.51 -11.58,24.76 -34.66,24.76 -26.43,0 -41.4,-5.15 -44.9,-15.48 -3.49,-10.31 -5.26,-24.76 -5.26,-43.33 0,-27.65 1.77,-63.13 5.26,-106.47 3.5,-43.33 5.27,-81.08 5.27,-113.28 0,-76.36 -4.45,-147.74 -13.31,-214.18 -8.89,-66.45 -13.3,-118.86 -13.3,-157.24 0,-40.43 4.41,-74.26 13.3,-101.51 8.86,-27.23 20.74,-42.09 35.59,-44.56 l 0.62,0 c 14.86,0 27.86,48.29 39,144.84 10.72,107.29 17.75,216.66 21.04,328.09 m 640.85,-269.34 c -3.29,-4.26 -4.95,-7.55 -4.95,-9.9 0,-3.32 3.3,-4.95 9.91,-4.95 11.32,0 36.31,4.71 75,14.14 63.66,19.35 116.25,46 157.76,79.96 41.52,33.96 64.86,72.16 70.05,114.61 0,25.94 -9.54,45.63 -28.65,59.08 -19.1,13.45 -43.28,20.16 -72.51,20.16 -88.7,0 -161.8,-26.65 -219.35,-79.93 -57.56,-53.33 -86.32,-127.14 -86.32,-221.48 5.68,-69.32 29.01,-120.75 70.05,-154.24 41.05,-33.49 90.32,-50.23 147.88,-50.23 60.84,0 110.95,11.19 150.34,33.61 39.38,22.4 67.1,44.21 83.15,65.44 16.03,21.23 24.05,33.97 24.05,38.22 0,5.18 -1.41,7.78 -4.25,7.78 -2.36,0 -11.8,-6.37 -28.3,-19.1 -55.18,-35.86 -117.7,-55.9 -187.49,-60.14 -48.12,0 -87.63,13.67 -118.52,41.03 -30.89,27.36 -46.35,62.26 -46.35,104.72 0,77.36 21.11,138.07 63.34,182.19 42.21,44.09 87.62,66.15 136.19,66.15 24.05,0 36.09,-11.32 36.09,-33.95 -0.96,-37.75 -35.37,-76.07 -103.29,-114.98 -67.92,-38.92 -109.21,-64.98 -123.83,-78.19 m 427.19,162.03 c -19.79,-72.17 -29.69,-131.38 -29.69,-177.6 0,-84.45 16.49,-142.45 49.51,-174.04 33.03,-31.61 72.88,-47.41 119.57,-47.41 44.34,0 84.22,19.44 119.59,58.36 35.37,38.92 63.19,98.24 83.48,177.95 -4.24,-25.94 -6.37,-54.94 -6.37,-87.02 0,-37.28 6.12,-70.65 18.41,-100.12 12.25,-29.48 22.63,-44.22 31.13,-44.22 20.74,0 31.11,8.5 31.11,25.47 0,7.55 -1.65,27 -4.95,58.38 -3.29,31.36 -4.95,54.82 -4.95,70.4 0,17.91 2,39.37 6.02,64.38 4.01,25 6.01,48.82 6.01,71.46 0,59.42 -18.4,89.15 -55.18,89.15 -28.78,-3.79 -61.09,-55.66 -96.93,-155.66 -35.85,-99.99 -77.61,-149.98 -125.24,-149.98 -53.77,0 -82.79,46.44 -87.02,139.38 1.88,68.37 11.2,123.33 27.95,164.84 16.73,41.5 25.11,74.29 25.11,98.34 0,17.45 -15.55,26.19 -46.7,26.19 -20.75,0 -41.04,-36.09 -60.86,-108.25 m 573.7,-162.03 c -3.32,-4.26 -4.97,-7.55 -4.97,-9.9 0,-3.32 3.29,-4.95 9.9,-4.95 11.32,0 36.34,4.71 75,14.14 63.68,19.35 116.28,46 157.79,79.96 41.49,33.96 64.84,72.16 70.05,114.61 0,25.94 -9.56,45.63 -28.66,59.08 -19.1,13.45 -43.29,20.16 -72.53,20.16 -88.67,0 -161.8,-26.65 -219.34,-79.93 -57.55,-53.33 -86.31,-127.14 -86.31,-221.48 5.66,-69.32 29.02,-120.75 70.03,-154.24 41.05,-33.49 90.34,-50.23 147.88,-50.23 60.86,0 110.97,11.19 150.35,33.61 39.4,22.4 67.09,44.21 83.14,65.44 16.03,21.23 24.05,33.97 24.05,38.22 0,5.18 -1.41,7.78 -4.24,7.78 -2.37,0 -11.78,-6.37 -28.31,-19.1 -55.18,-35.86 -117.68,-55.9 -187.49,-60.14 -48.1,0 -87.6,13.67 -118.49,41.03 -30.92,27.36 -46.35,62.26 -46.35,104.72 0,77.36 21.1,138.07 63.31,182.19 42.22,44.09 87.62,66.15 136.21,66.15 24.05,0 36.08,-11.32 36.08,-33.95 -0.95,-37.75 -35.38,-76.07 -103.31,-114.98 -67.92,-38.92 -109.2,-64.98 -123.79,-78.19 m 638.03,265.32 c -43.86,12.74 -79.01,19.11 -105.42,19.11 -29.25,0 -59.67,-8.03 -91.28,-24.06 -31.6,-16.05 -47.4,-39.38 -47.4,-70.05 0,-15.56 5.77,-37.85 17.34,-66.86 11.56,-29 48.12,-77.23 109.67,-144.68 61.56,-67.47 92.33,-112.26 92.33,-134.43 l 0,-1.42 c -12.27,-9.45 -25.72,-14.16 -40.33,-14.16 -10.84,0 -31.61,4.02 -62.27,12.03 -30.66,8.01 -57.3,25.72 -79.94,53.07 -8.02,8.96 -13.45,13.45 -16.27,13.45 -1.42,0 -2.13,-1.42 -2.13,-4.24 0,-12.76 4.71,-28.09 14.14,-46 25.49,-39.63 54.84,-66.76 88.09,-81.36 33.27,-14.62 59.55,-21.93 78.89,-21.93 26.9,0 52.01,7.77 75.35,23.33 23.36,15.58 35.03,34.68 35.03,57.33 0,47.62 -33.96,107.17 -101.88,178.64 -67.92,71.46 -101.89,124.17 -101.89,158.13 0,20.29 23.12,32.08 69.34,35.37 58.96,0 108.24,-19.1 147.88,-57.29 22.17,-19.82 36.31,-29.73 42.45,-29.73 2.36,0 3.55,1.42 3.55,4.24 0,6.14 -6.39,19.57 -19.12,40.33 -26.88,54.72 -62.26,88.45 -106.13,101.18"
         inkscape:connector-curvature="0" /></g></g></svg>