<?xml version="1.0" encoding="utf-8"?>
<!-- Generator: Adobe Illustrator 20.1.0, SVG Export Plug-In . SVG Version: 6.00 Build 0)  -->
<svg version="1.1" id="Laag_1" xmlns="http://www.w3.org/2000/svg" xmlns:xlink="http://www.w3.org/1999/xlink" x="0px" y="0px"
	 viewBox="0 0 299.7 76.8" style="enable-background:new 0 0 299.7 76.8;" xml:space="preserve">
<style type="text/css">
	.st0{fill:#FFFFFF;}
</style>
<path class="st0" d="M170.2,56.8c-1.6,0.4-3.6,0.9-6.2,1.3c-2.5,0.5-5.3,0.7-8.3,0.7c-2.8,0-5.2-0.4-7.1-1.3c-1.9-0.8-3.5-2-4.6-3.4
	c-1.1-1.5-2-3.2-2.5-5.2c-0.5-2-0.7-4.2-0.7-6.6V22.6h8.2V41c0,3.8,0.5,6.5,1.7,8.1c1.2,1.7,3,2.4,5.8,2.4c1,0,2-0.1,3.2-0.2
	c1.1-0.1,1.9-0.2,2.5-0.4V22.6h8.2C170.2,22.7,170.2,56.8,170.2,56.8z"/>
<path class="st0" d="M192.4,21.8c2.7,0,5,0.4,6.8,1c1.9,0.7,3.4,1.7,4.4,2.8c1.1,1.3,1.9,2.7,2.4,4.4c0.5,1.7,0.7,3.6,0.7,5.7V57
	c-1.3,0.3-3.2,0.6-5.7,1c-2.6,0.4-5.4,0.6-8.6,0.6c-2.1,0-4.1-0.2-5.8-0.6c-1.8-0.4-3.3-1.1-4.5-2c-1.3-0.9-2.2-2.1-2.9-3.5
	c-0.7-1.5-1.1-3.2-1.1-5.3c0-2,0.4-3.7,1.2-5.1c0.8-1.4,1.9-2.6,3.2-3.4c1.4-0.9,2.9-1.5,4.7-1.9c1.8-0.4,3.6-0.6,5.6-0.6
	c0.9,0,1.9,0.1,2.8,0.2c1,0.2,2,0.4,3.2,0.6v-1.4c0-0.9-0.2-1.9-0.4-2.7c-0.2-0.9-0.6-1.7-1.2-2.2c-0.6-0.7-1.3-1.2-2.2-1.5
	s-2.1-0.5-3.5-0.5c-1.9,0-3.6,0.2-5.2,0.4c-1.6,0.3-2.9,0.6-3.9,0.9l-1.1-6.6c1.1-0.4,2.6-0.7,4.5-1.1
	C188.1,21.9,190.2,21.8,192.4,21.8z M193,52.1c2.5,0,4.5-0.2,5.8-0.4v-9c-0.5-0.2-1.1-0.3-2-0.4s-1.8-0.2-2.8-0.2
	c-0.9,0-1.9,0.1-2.8,0.2s-1.8,0.4-2.5,0.7c-0.7,0.4-1.3,0.9-1.8,1.5s-0.7,1.5-0.7,2.5c0,2,0.6,3.3,1.9,4
	C189.4,51.8,191,52.1,193,52.1z"/>
<path class="st0" d="M225.8,12.3c0,1.5-0.5,2.8-1.5,3.7c-1,0.9-2.2,1.4-3.5,1.4s-2.6-0.5-3.6-1.4c-1-0.9-1.5-2.1-1.5-3.7
	c0-1.6,0.5-2.8,1.5-3.7s2.2-1.4,3.6-1.4c1.4,0,2.5,0.5,3.5,1.4C225.3,9.5,225.8,10.7,225.8,12.3z M224.9,57.9h-8.1V22.7h8.2
	L224.9,57.9L224.9,57.9z"/>
<path class="st0" d="M244.4,57.9c-2.2-4.7-4.6-9.9-6.9-15.9c-2.4-6-4.5-12.4-6.5-19.3h8.7c0.5,2,1.1,4.1,1.7,6.4
	c0.7,2.3,1.4,4.5,2.1,6.8c0.7,2.3,1.5,4.5,2.3,6.6c0.8,2.2,1.5,4.1,2.2,5.8c0.7-1.7,1.4-3.6,2.2-5.8c0.8-2.2,1.5-4.3,2.3-6.6
	c0.7-2.3,1.5-4.5,2.2-6.8c0.7-2.3,1.3-4.4,1.8-6.4h8.4c-2,6.9-4.1,13.3-6.5,19.3c-2.4,6-4.7,11.3-6.9,15.9H244.4z"/>
<path class="st0" d="M268,40.4c0-3.1,0.5-5.8,1.4-8.2c0.9-2.4,2.2-4.3,3.7-5.8c1.5-1.6,3.3-2.8,5.2-3.5c2-0.8,4-1.2,6.1-1.2
	c4.9,0,8.6,1.5,11.3,4.5c2.8,3,4.1,7.5,4.1,13.5c0,0.5,0,1-0.1,1.5c0,0.6-0.1,1.1-0.2,1.5h-23.2c0.2,2.8,1.3,5,3,6.6
	c1.8,1.6,4.3,2.4,7.7,2.4c2,0,3.8-0.2,5.4-0.5c1.7-0.4,3-0.7,3.9-1.1l1.1,6.7c-0.5,0.2-1.1,0.5-1.9,0.7c-0.8,0.3-1.7,0.5-2.7,0.7
	c-1,0.2-2.1,0.4-3.3,0.5c-1.2,0.2-2.4,0.2-3.6,0.2c-3.1,0-5.8-0.5-8.1-1.4c-2.3-0.9-4.2-2.2-5.6-3.9c-1.5-1.7-2.6-3.6-3.3-5.8
	C268.4,45.5,268,43.1,268,40.4z M291.7,36.8c0-1.1-0.2-2.2-0.5-3.2c-0.4-1-0.8-1.9-1.4-2.6c-0.6-0.7-1.4-1.3-2.2-1.8
	c-0.9-0.5-1.9-0.7-3.2-0.7s-2.4,0.3-3.3,0.7c-0.9,0.5-1.8,1.1-2.4,1.9c-0.7,0.8-1.2,1.7-1.5,2.6c-0.4,1-0.6,2-0.7,3L291.7,36.8
	L291.7,36.8L291.7,36.8z"/>
<path class="st0" d="M140.3,65.6c-3.9-3.7-7.2-7.3-10.3-11.2c1.5-1.7,2.7-3.7,3.5-6.2c0.9-2.4,1.3-5.2,1.3-8.1c0-3-0.5-5.7-1.3-8.1
	c-0.9-2.4-2.1-4.5-3.7-6.2c-1.6-1.7-3.5-3.1-5.7-4c-2.2-0.9-4.7-1.4-7.3-1.4s-5,0.5-7.3,1.4c-2.2,0.9-4.1,2.3-5.7,4
	c-1.7,1.7-2.9,3.8-3.7,6.2c-0.9,2.4-1.3,5.1-1.3,8.1c0,3,0.5,5.7,1.3,8.1c0.9,2.4,2.1,4.5,3.7,6.3c1.6,1.7,3.5,3.1,5.7,4
	c2.2,1,4.7,1.5,7.3,1.5c2.6,0,4.9-0.5,7-1.3c2.6,4.3,5.6,8.3,8.8,12.2C135.7,68.9,137.4,67.9,140.3,65.6z M110,49.1
	c-1.7-2.2-2.4-5.2-2.4-9c0-3.7,0.8-6.7,2.4-8.9c1.7-2.2,3.9-3.3,6.7-3.3s5.1,1.1,6.7,3.3c1.7,2.2,2.4,5.2,2.4,8.9
	c0,3.8-0.8,6.8-2.4,9c-1.7,2.2-3.9,3.4-6.7,3.4C113.8,52.4,111.6,51.3,110,49.1z"/>
<path class="st0" d="M55,73.2c-1.6-7.5-8.3-13-16.2-13s-14.6,5.6-16.2,13c4.9,2.3,10.4,3.6,16.2,3.6C44.5,76.7,50,75.5,55,73.2z"/>
<path class="st0" d="M77.5,38c0-1.6-0.1-3.1-0.3-4.6c-7.6-0.7-14.9,3.9-17.4,11.4c-2.4,7.5,0.8,15.6,7.4,19.4
	C73.6,57.4,77.5,48.1,77.5,38z"/>
<path class="st0" d="M51.8,20.1c6.4,4.7,15.1,4,20.8-1c-1.8-3.1-3.9-5.9-6.4-8.4C60.8,5.3,54,1.5,46.3,0C43.2,7,45.3,15.4,51.8,20.1
	z"/>
<path class="st0" d="M5,19.1c5.7,5.1,14.3,5.7,20.8,1S34.2,7,31.2,0c-7.7,1.5-14.5,5.3-19.8,10.6C8.8,13.1,6.7,16,5,19.1z"/>
<path class="st0" d="M17.7,44.8c-2.4-7.5-9.8-12.1-17.4-11.4C0.1,34.9,0,36.4,0,38c0,10.2,3.9,19.4,10.3,26.3
	C16.9,60.4,20.1,52.4,17.7,44.8z"/>
</svg>
