<?xml version="1.0" encoding="utf-8"?>
<!-- Generator: Adobe Illustrator 15.0.2, SVG Export Plug-In . SVG Version: 6.00 Build 0)  -->
<!DOCTYPE svg PUBLIC "-//W3C//DTD SVG 1.1//EN" "http://www.w3.org/Graphics/SVG/1.1/DTD/svg11.dtd">
<svg version="1.1" id="Calque_1" xmlns="http://www.w3.org/2000/svg" xmlns:xlink="http://www.w3.org/1999/xlink" x="0px" y="0px"
	 width="175.727px" height="33.328px" viewBox="0 0 175.727 33.328" enable-background="new 0 0 175.727 33.328"
	 xml:space="preserve">
<path fill="#E2E1E1" d="M147.106,7.278c0.984-1.368,2.023-2.627,3.229-3.885c1.203-1.259,2.463-2.354,3.775-3.393l-1.424,5.691
	L147.106,7.278L147.106,7.278z"/>
<path fill="#6D6D6C" d="M156.901,9.741c-1.641-0.164-3.338-0.493-4.979-0.875c-1.643-0.438-3.284-0.931-4.815-1.587l5.581-1.587
	L156.901,9.741L156.901,9.741z"/>
<path fill="#AEAEAE" d="M154.111,0c0.711,1.532,1.259,3.119,1.751,4.761c0.492,1.642,0.82,3.338,1.039,4.98l-4.214-4.05L154.111,0
	L154.111,0z"/>
<path fill="#AEAEAE" d="M145.135,18.936c-0.984-1.369-1.916-2.792-2.736-4.269c-0.767-1.532-1.478-3.12-2.024-4.652l4.926,3.065
	L145.135,18.936L145.135,18.936z"/>
<path fill="#6D6D6C" d="M150.499,10.343c-0.712,1.532-1.479,3.01-2.408,4.488c-0.875,1.478-1.916,2.846-2.955,4.104l0.164-5.856
	L150.499,10.343L150.499,10.343z"/>
<path fill="#E2E1E1" d="M140.374,10.015c1.642-0.219,3.339-0.273,5.035-0.219c1.752,0.055,3.394,0.273,5.09,0.547l-5.199,2.736
	L140.374,10.015L140.374,10.015z"/>
<path fill="#6D6D6C" d="M155.588,24.408c-1.588,0.547-3.229,0.931-4.926,1.259c-1.697,0.274-3.395,0.438-5.035,0.493l4.488-3.721
	L155.588,24.408L155.588,24.408z"/>
<path fill="#AEAEAE" d="M149.075,16.691c1.26,1.095,2.407,2.299,3.503,3.612c1.148,1.313,2.135,2.682,3.011,4.104l-5.473-1.97
	L149.075,16.691L149.075,16.691z"/>
<path fill="#E2E1E1" d="M145.627,26.159c0.329-1.642,0.767-3.229,1.369-4.871c0.602-1.587,1.312-3.174,2.078-4.652l1.041,5.802
	L145.627,26.159L145.627,26.159z"/>
<path fill="#AEAEAE" d="M164.016,16.144c0,1.697-0.108,3.338-0.329,5.09c-0.218,1.695-0.602,3.338-1.039,4.925l-2.188-5.418
	L164.016,16.144L164.016,16.144z"/>
<path fill="#E2E1E1" d="M154.658,19.92c1.423-0.82,2.954-1.587,4.542-2.189c1.587-0.656,3.229-1.204,4.815-1.586l-3.557,4.597
	L154.658,19.92L154.658,19.92z"/>
<path fill="#6D6D6C" d="M162.648,26.159c-1.478-0.821-2.9-1.751-4.214-2.791c-1.368-1.095-2.628-2.244-3.775-3.448l5.802,0.821
	L162.648,26.159L162.648,26.159z"/>
<path fill="#AEAEAE" d="M158.762,5.582c1.587,0.493,3.174,1.149,4.707,1.86c1.587,0.767,3.009,1.642,4.432,2.572l-5.854,0.383
	L158.762,5.582L158.762,5.582z"/>
<path fill="#E2E1E1" d="M159.473,15.652c-0.328-1.642-0.602-3.284-0.711-4.98c-0.109-1.751-0.109-3.448,0-5.089l3.283,4.816
	L159.473,15.652L159.473,15.652z"/>
<path fill="#6D6D6C" d="M167.901,10.015c-1.258,1.095-2.571,2.135-3.993,3.12c-1.425,0.93-2.9,1.806-4.435,2.518l2.572-5.254
	L167.901,10.015L167.901,10.015z"/>
<path fill="#231F20" d="M3.338,26.434H1.696c-0.383,0-0.491,0.164-0.711,0.438c-0.328,0.383-0.547,0.766-0.82,1.148L0,27.965
	l0.438-1.916c0.274,0.109,0.603,0.164,0.876,0.164h5.035c0.328,0,0.603-0.055,0.93-0.164l0.329,1.916L7.498,28.02
	c-0.274-0.383-0.493-0.767-0.768-1.148c-0.219-0.273-0.328-0.438-0.711-0.438H4.378v6.02C4.378,32.891,4.542,33,5.309,33v0.219h-2.9
	V33c0.711,0,0.931-0.109,0.931-0.547L3.338,26.434L3.338,26.434z"/>
<path fill="#231F20" d="M8.209,33.219v-0.164C8.647,33,8.811,33,8.811,32.507v-5.309c0-0.328-0.272-0.384-0.547-0.438V26.65
	c0.438-0.164,0.93-0.328,1.313-0.492v3.283c0.438-0.383,0.82-0.711,1.478-0.711c0.438,0,0.876,0.22,1.149,0.603
	c0.164,0.383,0.219,0.711,0.219,1.094v2.08c0,0.493,0.164,0.493,0.602,0.548v0.163h-1.916v-0.163C11.493,33,11.657,33,11.657,32.507
	v-2.08c0-0.327,0-0.438-0.164-0.766c-0.164-0.272-0.438-0.492-0.821-0.492c-0.603,0-0.766,0.328-1.094,0.603v2.735
	C9.578,33,9.742,33,10.18,33.055v0.163L8.209,33.219L8.209,33.219z"/>
<path fill="#231F20" d="M14.722,30.264c0,0.164-0.055,0.383-0.055,0.603c0,1.04,0.767,1.806,1.806,1.806
	c0.657,0,1.313-0.383,1.532-0.984l0.165,0.055c-0.329,0.931-0.985,1.587-2.025,1.587c-1.368,0-2.244-0.931-2.244-2.298
	c0-1.205,0.932-2.299,2.189-2.299c0.985,0,1.806,0.492,2.08,1.531H14.722L14.722,30.264z M16.91,30.045
	c-0.056-0.602-0.273-1.095-0.931-1.095c-0.656,0-0.984,0.493-1.148,1.095H16.91L16.91,30.045z"/>
<path fill="#231F20" d="M23.97,29.552c0-0.383-0.219-0.547-0.602-0.547c-0.384,0-0.875,0.274-0.875,0.493c0,0.109,0,0.164,0,0.219
	c0,0.438-0.109,0.711-0.548,0.711c-0.163,0-0.272-0.219-0.272-0.383c0-0.219,0.164-0.438,0.328-0.602
	c0.493-0.383,1.204-0.711,1.806-0.711c0.604,0,0.985,0.383,0.985,0.984v2.736c0,0.165,0,0.438,0.219,0.438
	c0.164,0,0.219-0.164,0.273-0.328h0.164c-0.056,0.492-0.273,0.766-0.767,0.766c-0.328,0-0.657-0.328-0.657-0.656
	c-0.492,0.328-0.82,0.656-1.478,0.656c-0.438,0-0.875-0.383-0.875-0.821c0-1.149,1.478-1.478,2.298-1.86V29.552L23.97,29.552z
	 M23.97,30.866c-0.438,0.219-1.587,0.547-1.587,1.204c0,0.383,0.273,0.766,0.711,0.766c0.383,0,0.602-0.164,0.875-0.438
	L23.97,30.866L23.97,30.866z"/>
<path fill="#231F20" d="M26.269,33.219v-0.164C26.707,33,26.816,33,26.816,32.507v-2.462c0-0.219,0-0.493-0.164-0.602
	c-0.108-0.109-0.219-0.109-0.383-0.109v-0.109c0.438-0.164,0.932-0.383,1.369-0.547v3.831c0,0.493,0.109,0.493,0.547,0.548v0.164
	h-1.916V33.219z M27.692,26.652c0,0.272-0.219,0.547-0.492,0.547c-0.274,0-0.548-0.273-0.548-0.547c0-0.274,0.273-0.493,0.548-0.493
	C27.473,26.159,27.692,26.434,27.692,26.652L27.692,26.652z"/>
<path fill="#231F20" d="M29.06,33.219v-0.164C29.498,33,29.607,33,29.607,32.507v-2.571c0-0.438-0.108-0.438-0.438-0.603v-0.108
	c0.438-0.166,0.821-0.33,1.258-0.494v0.711c0.219-0.272,0.547-0.766,0.985-0.766c0.329,0,0.547,0.164,0.547,0.438
	c0,0.219-0.164,0.383-0.383,0.383c-0.164,0-0.328-0.164-0.603-0.164c-0.164,0-0.547,0.272-0.547,0.438v2.735
	c0,0.493,0.11,0.493,0.657,0.548v0.163L29.06,33.219L29.06,33.219z"/>
<path fill="#231F20" d="M33.93,32.507c0,0.493,0.164,0.493,0.548,0.548v0.163h-1.916v-0.163C33,33,33.164,33,33.164,32.507v-4.979
	c0-0.274,0-0.493-0.164-0.657c-0.109-0.056-0.219-0.109-0.438-0.164v-0.108c0.492-0.111,0.931-0.33,1.368-0.438V32.507L33.93,32.507
	z"/>
<path fill="#231F20" d="M35.408,33.219v-0.164C35.9,33,36.01,33,36.01,32.507v-2.462c0-0.219,0-0.493-0.165-0.602
	c-0.109-0.109-0.219-0.109-0.383-0.109v-0.109c0.438-0.164,0.93-0.383,1.368-0.547v3.831c0,0.493,0.108,0.493,0.547,0.548v0.164
	h-1.969V33.219z M36.886,26.652c0,0.272-0.219,0.547-0.493,0.547c-0.273,0-0.547-0.273-0.547-0.547c0-0.274,0.274-0.493,0.547-0.493
	C36.666,26.159,36.886,26.434,36.886,26.652L36.886,26.652z"/>
<path fill="#231F20" d="M38.309,33.219v-0.164C38.747,33,38.856,33,38.856,32.507V29.99c0-0.383-0.108-0.547-0.493-0.656v-0.109
	c0.493-0.164,0.875-0.328,1.313-0.492v0.766c0.438-0.438,0.766-0.766,1.368-0.766c0.766,0,1.478,0.602,1.478,1.367v2.408
	c0,0.493,0.274,0.493,0.657,0.547v0.164h-2.025v-0.164C41.592,33,41.756,33,41.756,32.507v-2.243c0-0.658-0.383-1.095-1.04-1.095
	c-0.438,0-1.04,0.438-1.04,0.931v2.407c0,0.493,0.164,0.493,0.547,0.548v0.163L38.309,33.219L38.309,33.219z"/>
<path fill="#231F20" d="M44.821,30.264c-0.055,0.164-0.055,0.383-0.055,0.603c0,1.04,0.711,1.806,1.806,1.806
	c0.657,0,1.26-0.383,1.533-0.984l0.164,0.055c-0.328,0.931-1.04,1.587-2.08,1.587c-1.368,0-2.188-0.931-2.188-2.298
	c0-1.205,0.876-2.299,2.134-2.299c1.04,0,1.807,0.492,2.08,1.531H44.821L44.821,30.264z M46.956,30.045
	c0-0.602-0.22-1.095-0.932-1.095c-0.655,0-0.984,0.493-1.148,1.095H46.956L46.956,30.045z"/>
<path fill="#231F20" d="M51.717,33.219v-0.164C52.154,33,52.319,33,52.319,32.507V29.99c0-0.383-0.165-0.547-0.492-0.656v-0.109
	c0.438-0.164,0.82-0.328,1.259-0.492v0.766c0.438-0.438,0.766-0.766,1.423-0.766c0.711,0,1.478,0.602,1.478,1.367v2.408
	c0,0.493,0.273,0.493,0.603,0.547v0.164h-2.025v-0.164C55.055,33,55.165,33,55.165,32.507v-2.243c0-0.658-0.328-1.095-0.985-1.095
	c-0.438,0-1.094,0.438-1.094,0.931v2.407c0,0.493,0.164,0.493,0.602,0.548v0.163L51.717,33.219L51.717,33.219z"/>
<path fill="#231F20" d="M58.229,30.264c-0.055,0.164-0.055,0.383-0.055,0.603c0,1.04,0.711,1.806,1.806,1.806
	c0.657,0,1.259-0.383,1.532-0.984l0.165,0.055c-0.329,0.931-1.04,1.587-2.08,1.587c-1.368,0-2.188-0.931-2.188-2.298
	c0-1.205,0.931-2.299,2.188-2.299c0.985,0,1.806,0.492,2.025,1.531H58.229L58.229,30.264z M60.418,30.045
	c-0.056-0.602-0.274-1.095-0.932-1.095c-0.656,0-0.984,0.493-1.203,1.095H60.418L60.418,30.045z"/>
<path fill="#231F20" d="M63.811,29.333v2.683c0,0.547,0.11,0.82,0.712,0.82c0.273,0,0.603-0.219,0.821-0.383
	c0.164,0.109-0.055,0.273-0.164,0.383c-0.273,0.328-0.711,0.492-1.095,0.492c-0.768,0-1.04-0.547-1.04-1.204v-2.791h-0.547v-0.056
	c0.438-0.438,0.876-0.82,1.312-1.258v0.82h1.479l-0.22,0.493H63.811L63.811,29.333z"/>
<path fill="#231F20" d="M65.672,28.841h2.134v0.22c-0.164,0-0.657,0-0.657,0.219c0,0,0,0.055,0.056,0.164l1.04,2.791l0.984-2.299
	l-0.164-0.438c-0.108-0.272-0.219-0.438-0.602-0.438V28.84h2.024v0.219c-0.219,0-0.656,0-0.656,0.274
	c0,0.056,0.055,0.108,0.055,0.219l0.875,2.628h0.055l0.985-2.572c0-0.109,0.055-0.164,0.055-0.273c0-0.273-0.383-0.273-0.602-0.273
	v-0.22h1.532v0.22c-0.438,0-0.603,0.219-0.767,0.602l-1.478,3.667h-0.164l-1.04-3.063l-1.258,3.063h-0.22l-1.423-3.448
	c-0.055-0.164-0.219-0.656-0.383-0.766c-0.11-0.055-0.219-0.055-0.383-0.055V28.841L65.672,28.841z"/>
<path fill="#231F20" d="M75.468,28.73c1.313,0,2.189,1.041,2.189,2.299c0,1.369-0.875,2.299-2.189,2.299
	c-1.368,0-2.135-1.04-2.135-2.299C73.333,29.771,74.209,28.73,75.468,28.73L75.468,28.73z M75.468,33.164
	c0.985,0,1.313-1.094,1.313-1.859c0-0.877-0.11-2.354-1.313-2.354c-0.985,0-1.259,1.313-1.259,2.079
	C74.209,31.852,74.483,33.164,75.468,33.164L75.468,33.164z"/>
<path fill="#231F20" d="M78.478,33.219v-0.164C78.916,33,79.025,33,79.025,32.507v-2.571c0-0.438-0.108-0.438-0.492-0.603v-0.108
	c0.438-0.166,0.875-0.33,1.259-0.494v0.711c0.272-0.272,0.602-0.766,1.04-0.766c0.272,0,0.547,0.164,0.547,0.438
	c0,0.219-0.219,0.383-0.383,0.383s-0.384-0.164-0.603-0.164c-0.164,0-0.547,0.272-0.547,0.438v2.735
	c0,0.493,0.109,0.493,0.603,0.548v0.163L78.478,33.219L78.478,33.219z"/>
<path fill="#231F20" d="M81.871,33.219v-0.164C82.309,33,82.473,33,82.473,32.507v-5.254c0-0.328-0.164-0.438-0.493-0.492v-0.108
	c0.438-0.166,0.821-0.329,1.26-0.493v4.597l1.423-0.984c0.108-0.109,0.329-0.22,0.329-0.438s-0.657-0.274-0.821-0.274V28.84h2.299
	v0.219c-0.876,0.056-1.478,0.821-2.189,1.205l1.696,2.079c0.328,0.438,0.547,0.712,1.04,0.712v0.163h-2.298v-0.163
	c0.11,0,0.547,0,0.547-0.22c0-0.164-0.219-0.383-0.328-0.493L83.678,30.7l-0.438,0.329v1.477c0,0.493,0.163,0.493,0.602,0.547v0.164
	h-1.971V33.219z"/>
<path fill="#231F20" d="M90.299,33.219v-0.164C90.792,33,90.956,33,90.956,32.507v-3.174H90.19l0.109-0.438h0.657v-0.383
	c0.055-2.08,1.259-2.354,1.806-2.354c0.438,0,1.095,0.164,1.095,0.711c0,0.273-0.165,0.438-0.438,0.438
	c-0.493,0-0.383-0.875-1.04-0.875c-0.492,0-0.656,0.493-0.656,1.041v1.422h1.094l-0.108,0.438h-0.985v3.174
	c0,0.493,0.164,0.493,0.766,0.548v0.163L90.299,33.219L90.299,33.219z"/>
<path fill="#231F20" d="M95.771,28.73c1.314,0,2.136,1.041,2.136,2.299c0,1.369-0.821,2.299-2.136,2.299
	c-1.368,0-2.134-1.04-2.134-2.299C93.637,29.771,94.513,28.73,95.771,28.73L95.771,28.73z M95.771,33.164
	c0.985,0,1.314-1.094,1.314-1.859c0-0.877-0.11-2.354-1.314-2.354c-0.984,0-1.258,1.313-1.258,2.079
	C94.513,31.852,94.787,33.164,95.771,33.164L95.771,33.164z"/>
<path fill="#231F20" d="M98.727,33.219v-0.164C99.165,33,99.329,33,99.329,32.507v-2.571c0-0.438-0.109-0.438-0.492-0.603v-0.108
	c0.438-0.166,0.875-0.33,1.259-0.494v0.711c0.273-0.272,0.604-0.766,1.04-0.766c0.273,0,0.492,0.164,0.492,0.438
	c0,0.219-0.164,0.383-0.383,0.383c-0.164,0-0.329-0.164-0.547-0.164c-0.221,0-0.549,0.272-0.549,0.438v2.735
	c0,0.493,0.109,0.493,0.604,0.548v0.163L98.727,33.219L98.727,33.219z"/>
<path fill="#231F20" d="M105.075,33.219V33c0.492,0,0.767-0.055,0.767-0.547v-5.418c0-0.547-0.328-0.602-0.821-0.602v-0.22h5.199
	l0.493,1.642l-0.219,0.056c-0.165-0.22-0.274-0.438-0.438-0.657c-0.548-0.656-1.04-0.82-1.642-0.82h-1.532v3.119h0.547
	c1.04,0,1.424-0.109,1.696-1.258h0.165v2.9h-0.165c-0.109-1.149-0.547-1.369-1.532-1.369h-0.711v2.682
	c0,0.493,0.328,0.493,0.711,0.493h1.149c0.492,0,0.766-0.056,1.148-0.493c0.383-0.328,0.657-0.711,0.931-1.148l0.164,0.055
	l-0.383,1.807h-5.527V33.219z"/>
<path fill="#231F20" d="M114.543,29.552c0-0.383-0.274-0.547-0.657-0.547c-0.328,0-0.876,0.274-0.876,0.493c0,0.109,0,0.164,0,0.219
	c0,0.438-0.055,0.711-0.492,0.711c-0.164,0-0.328-0.219-0.328-0.383c0-0.219,0.164-0.438,0.384-0.602
	c0.438-0.383,1.203-0.711,1.806-0.711s0.931,0.383,0.931,0.984v2.736c0,0.165,0,0.438,0.219,0.438c0.164,0,0.274-0.164,0.274-0.328
	h0.163c0,0.492-0.219,0.766-0.711,0.766c-0.383,0-0.711-0.328-0.711-0.656c-0.493,0.328-0.768,0.656-1.424,0.656
	c-0.492,0-0.876-0.383-0.876-0.821c0-1.149,1.479-1.478,2.3-1.86L114.543,29.552L114.543,29.552z M114.543,30.866
	c-0.438,0.219-1.644,0.547-1.644,1.204c0,0.383,0.328,0.766,0.712,0.766c0.438,0,0.656-0.164,0.932-0.438V30.866L114.543,30.866z"/>
<path fill="#231F20" d="M116.732,33.219v-0.164C117.169,33,117.28,33,117.28,32.507v-2.571c0-0.438-0.109-0.438-0.438-0.603v-0.108
	c0.438-0.166,0.82-0.33,1.258-0.494v0.711c0.219-0.272,0.548-0.766,0.985-0.766c0.328,0,0.547,0.164,0.547,0.438
	c0,0.219-0.164,0.383-0.383,0.383c-0.164,0-0.329-0.164-0.603-0.164c-0.165,0-0.548,0.272-0.548,0.438v2.735
	c0,0.493,0.109,0.493,0.656,0.548v0.163L116.732,33.219L116.732,33.219z"/>
<path fill="#231F20" d="M121.438,29.333v2.683c0,0.547,0.164,0.82,0.712,0.82c0.273,0,0.604-0.219,0.82-0.383
	c0.22,0.109,0,0.273-0.109,0.383c-0.271,0.328-0.711,0.492-1.147,0.492c-0.712,0-1.04-0.547-1.04-1.204v-2.791h-0.492v-0.056
	c0.383-0.438,0.876-0.82,1.258-1.258v0.82h1.532l-0.271,0.493H121.438L121.438,29.333z"/>
<path fill="#231F20" d="M123.627,33.219v-0.164c0.438-0.055,0.602-0.055,0.602-0.547v-5.309c0-0.328-0.271-0.383-0.547-0.438v-0.108
	c0.438-0.166,0.876-0.329,1.313-0.493v3.284c0.438-0.383,0.819-0.711,1.478-0.711c0.438,0,0.876,0.219,1.095,0.602
	c0.22,0.383,0.274,0.711,0.274,1.094v2.08c0,0.493,0.109,0.493,0.602,0.547v0.164h-1.971v-0.164
	c0.438-0.055,0.548-0.055,0.548-0.547v-2.08c0-0.328,0-0.438-0.109-0.766c-0.164-0.273-0.438-0.492-0.82-0.492
	c-0.603,0-0.821,0.328-1.095,0.602v2.736c0,0.493,0.165,0.493,0.548,0.547v0.164H123.627L123.627,33.219z"/>
<path fill="#231F20" d="M129.483,32.781c0-0.329,0.274-0.602,0.604-0.602s0.547,0.272,0.547,0.602c0,0.328-0.273,0.547-0.547,0.547
	C129.703,33.328,129.483,33.055,129.483,32.781L129.483,32.781z"/>
<path fill="#231F20" d="M4.433,14.119c-1.859-0.219-3.612-0.383-3.612-2.134c0-0.821,0.384-1.423,1.26-1.807
	C2.9,9.796,3.831,9.741,4.378,9.741c0.711,0,1.97,0.109,2.736,0.875C7.498,11,7.662,11.492,7.662,12.04c0,0.109,0,0.164,0,0.273
	h0.602c0-0.055,0-0.109,0-0.164s0-0.109,0-0.164c0-0.712-0.219-1.259-0.657-1.697c-0.82-0.875-2.298-1.04-3.338-1.04
	s-2.627,0.329-3.448,1.149c-0.438,0.438-0.656,0.985-0.656,1.587c0,2.298,2.024,2.462,3.995,2.626
	c0.984,0.11,1.916,0.165,2.571,0.493c0.821,0.329,1.204,0.93,1.204,1.806c0,0.547-0.219,1.04-0.602,1.423
	c-0.821,0.82-2.298,0.876-2.955,0.876c-1.479,0-2.572-0.328-3.229-0.985c-0.492-0.492-0.767-1.148-0.767-1.97h-0.547
	c0,0.985,0.273,1.751,0.821,2.353c0.767,0.767,2.079,1.149,3.83,1.149c0.932,0,4.105-0.219,4.105-2.901
	C8.592,14.502,6.458,14.283,4.433,14.119L4.433,14.119z"/>
<polygon fill="#231F20" points="14.94,10.015 14.94,19.537 14.338,19.537 14.338,10.015 10.234,10.015 10.234,9.468 19.045,9.468 
	19.045,10.015 "/>
<path fill="#231F20" d="M28.567,19.537l-1.532-3.229h-5.582l-1.532,3.229h-0.657l4.652-10.069h0.711l4.597,10.069H28.567
	L28.567,19.537z M24.244,10.124l-2.572,5.637h5.144L24.244,10.124L24.244,10.124z"/>
<path fill="#231F20" d="M40.169,19.537c-0.219-0.164-0.274-0.821-0.274-2.354c-0.055-1.75-0.602-2.244-2.627-2.244H32.89v4.597
	h-0.657V9.468h5.035c1.97,0,3.448,0.547,3.448,2.682c0,1.04-0.657,2.134-2.08,2.462v0.055c1.204,0.165,1.86,0.985,1.915,2.08
	c0,1.86,0.055,2.463,0.274,2.791L40.169,19.537L40.169,19.537z M37.324,10.015h-4.434v4.378h4.27c0.656,0,2.899,0,2.899-2.298
	C40.06,10.453,38.747,10.015,37.324,10.015L37.324,10.015z"/>
<path fill="#231F20" d="M57.08,19.537l-1.479-3.229h-5.637l-1.479,3.229h-0.711l4.652-10.069h0.711l4.652,10.069H57.08L57.08,19.537
	z M52.811,10.124l-2.572,5.637h5.091L52.811,10.124L52.811,10.124z"/>
<path fill="#231F20" d="M92.707,19.537l-1.479-3.229h-5.637l-1.478,3.229h-0.712l4.652-10.069h0.711l4.652,10.069H92.707
	L92.707,19.537z M88.438,10.124l-2.571,5.637h5.145L88.438,10.124L88.438,10.124z"/>
<polygon fill="#231F20" points="68.025,18.99 61.567,18.99 61.567,9.468 60.965,9.468 60.965,19.537 68.025,19.537 "/>
<polygon fill="#231F20" points="77.329,18.99 70.926,18.99 70.926,9.468 70.324,9.468 70.324,19.537 77.329,19.537 "/>
<polygon fill="#231F20" points="79.572,19.537 80.229,19.537 80.229,9.468 79.572,9.468 "/>
<polygon fill="#231F20" points="104.528,19.537 96.921,10.343 96.921,19.537 96.264,19.537 96.264,9.468 97.03,9.468 
	104.637,18.662 104.637,9.468 105.294,9.468 105.294,19.537 "/>
<polygon fill="#231F20" points="121.876,19.537 121.876,9.468 129.811,9.468 129.811,10.015 122.533,10.015 122.533,14.064 
	129.483,14.064 129.483,14.612 122.533,14.612 122.533,18.99 129.867,18.99 129.867,19.537 "/>
<path fill="#231F20" d="M113.613,19.756c-3.063,0-5.198-1.916-5.198-5.254c0-2.627,1.751-5.254,5.254-5.254
	c2.407,0,4.269,1.095,4.761,3.393h-0.656c-0.491-1.97-2.188-2.846-4.104-2.846c-2.9,0-4.599,2.135-4.599,4.707
	c0,2.517,1.479,4.707,4.544,4.707c2.243,0,3.939-1.312,4.322-3.502h0.656C118.374,17.622,116.677,19.756,113.613,19.756
	L113.613,19.756z"/>
<polygon fill="#FFFFFF" points="170.966,11.875 171.24,11.875 171.24,9.687 172.169,9.687 172.169,9.468 170.036,9.468 
	170.036,9.687 170.966,9.687 "/>
<polygon fill="#FFFFFF" points="175.344,9.468 175.727,9.468 175.727,11.875 175.454,11.875 175.454,9.796 174.36,11.875 
	174.14,11.875 173.045,9.796 173.045,11.875 172.827,11.875 172.827,9.468 173.155,9.468 174.25,11.602 "/>
</svg>
