<?xml version="1.0" encoding="utf-8"?>
<!-- Generator: Adobe Illustrator 20.1.0, SVG Export Plug-In . SVG Version: 6.00 Build 0)  -->
<svg version="1.1" id="Calque_1" xmlns="http://www.w3.org/2000/svg" xmlns:xlink="http://www.w3.org/1999/xlink" x="0px" y="0px"
	 viewBox="0 0 382.9 56.2" style="enable-background:new 0 0 382.9 56.2;" xml:space="preserve">
<style type="text/css">
	.st0{fill:#FFFFFF;}
	.st1{fill:#1D1D1B;}
	.st2{fill:#9C9B9B;}
</style>
<g>
	<g>
		<g>
			<path class="st0" d="M319.6,15c2.1-2.9,4.5-5.7,7-8.4c2.6-2.7,5.3-5.1,8.2-7.4l-3.1,12.3L319.6,15z"/>
			<path class="st1" d="M340.8,20.3c-3.6-0.4-7.2-1-10.8-1.9c-3.6-0.9-7.1-2-10.5-3.4l12.2-3.5L340.8,20.3z"/>
			<path class="st2" d="M334.8-0.8c1.5,3.3,2.7,6.7,3.8,10.3c1,3.6,1.8,7.2,2.3,10.8l-9.1-8.8L334.8-0.8z"/>
		</g>
		<g>
			<path class="st2" d="M315.3,40.2c-2.1-2.9-4.1-6-5.8-9.3c-1.8-3.3-3.2-6.7-4.5-10.1l10.7,6.7L315.3,40.2z"/>
			<path class="st1" d="M326.9,21.6c-1.5,3.3-3.2,6.5-5.1,9.7c-2,3.2-4.1,6.1-6.5,8.9l0.4-12.6L326.9,21.6z"/>
			<path class="st0" d="M305,20.9c3.6-0.4,7.2-0.5,11-0.4c3.7,0.1,7.4,0.5,10.9,1.2l-11.2,5.9L305,20.9z"/>
		</g>
		<g>
			<path class="st1" d="M337.9,52.1c-3.4,1.1-7,2-10.6,2.7c-3.7,0.6-7.3,1-10.9,1.1l9.7-8.1L337.9,52.1z"/>
			<path class="st2" d="M323.9,35.3c2.7,2.4,5.2,5,7.6,7.9c2.4,2.9,4.5,5.8,6.5,8.9L326,47.8L323.9,35.3z"/>
			<path class="st0" d="M316.4,55.9c0.7-3.5,1.7-7.1,3-10.5c1.3-3.5,2.8-6.9,4.5-10l2.2,12.5L316.4,55.9z"/>
		</g>
		<g>
			<path class="st2" d="M356.2,34.2c0,3.6-0.2,7.3-0.7,10.9c-0.5,3.7-1.3,7.3-2.3,10.8l-4.7-11.7L356.2,34.2z"/>
			<path class="st0" d="M335.9,42.4c3.1-1.8,6.4-3.4,9.8-4.8c3.5-1.4,7-2.5,10.5-3.4l-7.8,10L335.9,42.4z"/>
			<path class="st1" d="M353.2,55.9c-3.1-1.8-6.2-3.8-9.1-6.1c-2.9-2.3-5.7-4.8-8.2-7.4l12.5,1.8L353.2,55.9z"/>
		</g>
		<g>
			<path class="st2" d="M344.9,11.3c3.4,1.1,6.8,2.5,10.2,4.1c3.3,1.6,6.5,3.5,9.5,5.5L352,21.8L344.9,11.3z"/>
			<path class="st0" d="M346.4,33.1c-0.8-3.5-1.3-7.2-1.5-10.9c-0.3-3.7-0.2-7.4,0-11l7.1,10.5L346.4,33.1z"/>
			<path class="st1" d="M364.6,20.9c-2.7,2.4-5.6,4.7-8.6,6.8c-3.1,2.1-6.3,3.9-9.5,5.5l5.5-11.4L364.6,20.9z"/>
		</g>
	</g>
	<g>
		<path class="st0" d="M-0.5,34.4c0,2.2,0.6,3.8,1.9,5.1c1.7,1.7,4.7,2.6,8.5,2.6c2.1,0,9.4-0.5,9.4-6.5c0-5.3-4.8-5.8-9.1-6.2v0
			c-4.4-0.4-7.7-0.9-7.7-3.9c0-1.5,0.8-2.6,2.3-3.3c1.6-0.7,3.4-0.9,5.2-0.9c1.4,0,4,0.2,5.4,1.7c0.7,0.7,1,1.7,1,2.8l2.2,0
			c0-1.6-0.5-3.2-1.5-4.3c-1.9-1.9-5-2.2-7.3-2.2c-3.2,0-6.3,0.7-8.2,2.6c-1,1-1.5,2.2-1.5,3.6c0,5.2,5.3,5.6,9.4,6
			c2,0.2,3.8,0.3,5.2,0.9C16.3,33,17,34,17,35.7c0,1-0.3,1.9-1,2.6c-1.6,1.6-5,1.8-6.2,1.8c-3,0-5.4-0.6-6.7-1.9
			c-0.9-0.9-1.4-2.1-1.4-3.7L-0.5,34.4z M22,19.6v2.2c0,0,7.7,0,8.5,0c0,0.9,0,19.9,0,19.9h2.3c0,0,0-18.9,0-19.9c0.9,0,8.5,0,8.5,0
			v-2.2H22z M51.3,19.6l-10.1,22h2.5c0,0,2.9-6.3,3.1-6.8c0.6,0,10.5,0,11.1,0c0.2,0.5,3.1,6.8,3.1,6.8h2.5l-10.1-22H51.3z
			 M52.4,22.7c0.7,1.5,4.1,8.9,4.6,10c-1.2,0-8,0-9.2,0C48.3,31.6,51.7,24.2,52.4,22.7z M69.1,19.6v22h2.3c0,0,0-8.7,0-9.6
			c0.9,0,8.9,0,8.9,0c3.9,0,4.8,0.8,4.9,4.2c0.1,3.6,0.2,4.7,0.7,5.2l0.1,0.1h2.4L88.2,41c-0.4-0.7-0.5-2-0.5-5.6
			c0-2.2-1.2-3.8-3.1-4.5c2.5-1.1,3.5-3.3,3.5-5.2c0-4.1-2.5-6.1-7.6-6.1H69.1z M80.5,21.8c3.5,0,5.2,1.3,5.2,3.8
			c0,2.9-1.8,4.3-5.5,4.3c0,0-7.9,0-8.7,0c0-0.8,0-7.3,0-8.1C72.3,21.8,80.5,21.8,80.5,21.8z M114.1,19.6l-10.1,22h2.5
			c0,0,2.9-6.3,3.1-6.8c0.6,0,10.5,0,11.1,0c0.2,0.5,3.1,6.8,3.1,6.8h2.5l-10.1-22H114.1z M115.2,22.7c0.7,1.5,4.1,8.9,4.6,10
			c-1.2,0-8,0-9.2,0C111.1,31.6,114.5,24.2,115.2,22.7z M191.3,19.6l-10.1,22h2.5c0,0,2.9-6.3,3.1-6.8c0.6,0,10.5,0,11.1,0
			c0.2,0.5,3.1,6.8,3.1,6.8h2.5l-10.1-22H191.3z M192.3,22.7c0.7,1.5,4.1,8.9,4.6,10c-1.2,0-8,0-9.2,0
			C188.2,31.6,191.6,24.2,192.3,22.7z M131.9,19.6v22h15.9v-2.2c0,0-12.7,0-13.6,0c0-0.9,0-19.9,0-19.9H131.9z M152.7,19.6v22h15.8
			v-2.2c0,0-12.6,0-13.5,0c0-0.9,0-19.9,0-19.9H152.7z M173.3,19.6v22h2.3v-22H173.3z M227.2,19.6c0,0,0,16.1,0,18.4
			c-1.4-1.7-15.9-18.4-15.9-18.4h-2.3v22h2.3c0,0,0-16.2,0-18.4c1.4,1.7,15.9,18.4,15.9,18.4h2.3v-22H227.2z M264.6,19.6v22h17.8
			v-2.2c0,0-14.6,0-15.5,0c0-0.8,0-7.4,0-8.2c0.9,0,14.7,0,14.7,0v-2.1c0,0-13.8,0-14.7,0c0-0.8,0-6.6,0-7.4c0.9,0,15.3,0,15.3,0
			v-2.2H264.6z M235.8,30.7c0,7,4.8,11.4,11.9,11.4c6.6,0,10.6-4.5,11.1-8.9l0.1-0.5h-2.4l-0.1,0.4c-0.8,4.2-4.1,6.9-8.8,6.9
			c-6.8,0-9.6-4.8-9.6-9.3c0-5.5,4-9.3,9.7-9.3c4.3,0,7.5,2.1,8.3,5.5l0.1,0.4h2.4l-0.1-0.6c-1.1-4.7-5-7.5-10.7-7.5
			C239.8,19.2,235.8,25.1,235.8,30.7z"/>
	</g>
	<g>
		<path class="st0" d="M371.6,25.2h0.6v-5h2.2v-0.5h-4.9v0.5h2.2V25.2z"/>
		<path class="st0" d="M381.5,19.7h0.8v5.5h-0.6v-4.8h0l-2.4,4.8h-0.5l-2.4-4.8h0v4.8h-0.6v-5.5h0.8l2.5,4.8L381.5,19.7z"/>
	</g>
</g>
</svg>
