<?xml version="1.0" encoding="utf-8"?>
<!-- Generator: Adobe Illustrator 20.1.0, SVG Export Plug-In . SVG Version: 6.00 Build 0)  -->
<svg version="1.0" id="Calque_1" xmlns="http://www.w3.org/2000/svg" xmlns:xlink="http://www.w3.org/1999/xlink" x="0px" y="0px"
	 viewBox="0 0 382.9 56.2" style="enable-background:new 0 0 382.9 56.2;" xml:space="preserve">
<style type="text/css">
	.st0{fill:#EBEBEB;}
	.st1{fill:#5A5A59;}
	.st2{fill:#B7B6B6;}
	.st3{fill:#FFFFFF;}
</style>
<g>
	<g>
		<path class="st0" d="M321.5,15.6c2.1-2.9,4.4-5.8,7-8.5c2.6-2.7,5.3-5.2,8.1-7.4l-3,12.3L321.5,15.6z"/>
		<path class="st1" d="M342.5,20.9c-3.6-0.4-7.1-1-10.7-1.9c-3.6-0.9-7-2.1-10.3-3.4l12-3.5L342.5,20.9z"/>
		<path class="st2" d="M336.6-0.3c1.5,3.3,2.7,6.8,3.7,10.4c1,3.6,1.8,7.2,2.2,10.8l-9-8.8L336.6-0.3z"/>
	</g>
	<g>
		<path class="st2" d="M317.2,40.9c-2.1-2.9-4-6-5.8-9.3c-1.7-3.3-3.2-6.7-4.4-10.1l10.6,6.7L317.2,40.9z"/>
		<path class="st1" d="M328.7,22.3c-1.4,3.3-3.1,6.6-5.1,9.7c-2,3.2-4.1,6.2-6.4,8.9l0.4-12.7L328.7,22.3z"/>
		<path class="st0" d="M307.1,21.5c3.6-0.4,7.2-0.5,10.8-0.4c3.7,0.1,7.3,0.5,10.8,1.2l-11.1,6L307.1,21.5z"/>
	</g>
	<g>
		<path class="st1" d="M339.7,52.9c-3.4,1.1-6.9,2-10.5,2.7c-3.6,0.7-7.2,1-10.8,1.1l9.6-8.2L339.7,52.9z"/>
		<path class="st2" d="M325.7,36c2.7,2.4,5.2,5.1,7.6,7.9c2.4,2.9,4.5,5.9,6.4,9l-11.8-4.4L325.7,36z"/>
		<path class="st0" d="M318.3,56.7c0.7-3.6,1.7-7.1,3-10.6c1.3-3.5,2.7-6.9,4.4-10.1l2.2,12.5L318.3,56.7z"/>
	</g>
	<g>
		<path class="st2" d="M357.8,34.9c0,3.6-0.2,7.3-0.7,11c-0.5,3.7-1.3,7.3-2.3,10.8l-4.7-11.8L357.8,34.9z"/>
		<path class="st0" d="M337.7,43.2c3.1-1.8,6.3-3.5,9.7-4.9c3.4-1.4,6.9-2.5,10.4-3.4l-7.7,10L337.7,43.2z"/>
		<path class="st1" d="M354.8,56.7c-3.1-1.8-6.1-3.8-9-6.1c-2.9-2.3-5.6-4.8-8.1-7.4l12.4,1.8L354.8,56.7z"/>
	</g>
	<g>
		<path class="st2" d="M346.6,11.8c3.4,1.1,6.8,2.5,10.1,4.1c3.3,1.6,6.5,3.5,9.4,5.5l-12.5,0.9L346.6,11.8z"/>
		<path class="st0" d="M348.1,33.8c-0.8-3.5-1.3-7.2-1.5-10.9c-0.3-3.7-0.2-7.4,0-11.1l7,10.5L348.1,33.8z"/>
		<path class="st1" d="M366.1,21.5c-2.6,2.4-5.5,4.7-8.5,6.8c-3.1,2.1-6.2,3.9-9.4,5.5l5.5-11.4L366.1,21.5z"/>
	</g>
</g>
<path class="st3" d="M-0.4,35.1c0,2.2,0.6,3.8,1.9,5c1.7,1.7,4.6,2.6,8.3,2.6c2.1,0,9.2-0.5,9.2-6.5c0-5.3-4.7-5.8-8.9-6.2l0,0
	c-4.3-0.4-7.5-0.9-7.5-3.9c0-1.5,0.7-2.5,2.3-3.3C6.5,22.1,8.2,22,9.9,22c1.4,0,3.9,0.2,5.3,1.6c0.7,0.7,1,1.7,1,2.8l2.2,0
	c0-1.6-0.5-3.2-1.5-4.2C15.1,20.4,12,20,9.8,20c-3.1,0-6.1,0.7-8,2.6c-1,1-1.5,2.2-1.5,3.6c0,5.2,5.2,5.6,9.2,6
	c1.9,0.2,3.7,0.3,5.1,0.9c1.4,0.6,2.1,1.7,2.1,3.3c0,1-0.3,1.9-1,2.6c-1.6,1.6-4.8,1.8-6,1.8c-2.9,0-5.3-0.6-6.5-1.9
	c-0.9-0.9-1.4-2.1-1.4-3.7L-0.4,35.1z M22.5,20.4l0,2.1c0,0,7.5,0,8.3,0c0,0.9,0,19.8,0,19.8H33c0,0,0-18.8,0-19.8
	c0.8,0,8.3,0,8.3,0v-2.1L22.5,20.4z M51.9,20.4L42,42.3h2.4c0,0,2.8-6.3,3.1-6.8c0.6,0,10.3,0,10.9,0c0.2,0.5,3,6.8,3,6.8l2.5,0
	L54,20.4H51.9z M52.9,23.4c0.7,1.5,4,8.9,4.5,10c-1.2,0-7.8,0-9,0C48.9,32.3,52.2,24.9,52.9,23.4z M70.1,20.4l0,21.9h2.2
	c0,0,0-8.7,0-9.5c0.8,0,8.7,0,8.7,0c3.8,0,4.7,0.8,4.8,4.2c0.1,3.6,0.2,4.7,0.7,5.2l0.1,0.1l2.3,0l-0.4-0.7c-0.4-0.7-0.5-2-0.5-5.6
	c0-2.2-1.2-3.7-3.1-4.4c2.4-1.1,3.4-3.3,3.4-5.2c0-4.1-2.4-6-7.4-6L70.1,20.4z M81.2,22.5c3.4,0,5.1,1.2,5.1,3.8
	c0,2.9-1.8,4.3-5.4,4.3c0,0-7.7,0-8.5,0c0-0.8,0-7.3,0-8.1C73.2,22.5,81.2,22.5,81.2,22.5z M114.1,20.4l-9.9,21.9h2.5
	c0,0,2.8-6.3,3-6.8c0.6,0,10.3,0,10.9,0c0.2,0.5,3.1,6.8,3.1,6.8l2.4,0l-9.9-21.9H114.1z M115.2,23.4c0.7,1.5,4,8.9,4.5,10
	c-1.2,0-7.8,0-9,0C111.2,32.3,114.5,24.9,115.2,23.4z M192.6,20.4l-9.9,21.9l2.5,0c0,0,2.8-6.3,3-6.8c0.6,0,10.3,0,10.9,0
	c0.2,0.5,3.1,6.8,3.1,6.8h2.5l-9.9-21.9H192.6z M193.6,23.4c0.7,1.5,4,8.9,4.5,10c-1.2,0-7.8,0-9,0
	C189.6,32.3,192.9,24.9,193.6,23.4z M133,20.4v21.9l15.5,0v-2.1c0,0-12.4,0-13.3,0c0-0.9,0-19.8,0-19.8H133z M153.4,20.4v21.9
	l15.5,0v-2.1c0,0-12.4,0-13.3,0c0-0.9,0-19.8,0-19.8L153.4,20.4z M173.5,20.4v21.9h2.2V20.4H173.5z M228.5,20.4c0,0,0,16,0,18.3
	c-1.4-1.7-15.6-18.3-15.6-18.3h-2.2v21.9h2.2c0,0,0-16.1,0-18.3c1.4,1.7,15.6,18.3,15.6,18.3h2.2V20.4L228.5,20.4z M267.3,20.4
	l0,21.9l17.4,0v-2.1c0,0-14.3,0-15.2,0c0-0.8,0-7.3,0-8.1c0.9,0,14.4,0,14.4,0v-2.1c0,0-13.5,0-14.4,0c0-0.8,0-6.6,0-7.4
	c0.9,0,15,0,15,0v-2.1L267.3,20.4z M237.7,31.4c0,6.9,4.7,11.4,11.7,11.4c6.5,0,10.4-4.4,10.9-8.8l0.1-0.5H258l-0.1,0.4
	c-0.7,4.2-4,6.8-8.6,6.8c-6.7,0-9.4-4.8-9.4-9.3c0-5.5,3.9-9.3,9.5-9.3c4.2,0,7.3,2.1,8.2,5.5l0.1,0.4h2.3l-0.1-0.6
	c-1.1-4.7-4.9-7.4-10.5-7.4C241.5,19.9,237.7,25.8,237.7,31.4z"/>
<g>
	<path class="st3" d="M373,21.1h-2v-0.7l4.9,0v0.7h-2v4.8H373V21.1z"/>
	<path class="st3" d="M381.8,20.4h1.1v5.5h-0.8v-4.5h0l-2.1,4.5h-0.7l-2.1-4.4h0v4.4h-0.8v-5.5h1.1l2.1,4.5L381.8,20.4z"/>
</g>
</svg>
