<?xml version="1.0" encoding="utf-8"?>
<!-- Generator: Adobe Illustrator 21.1.0, SVG Export Plug-In . SVG Version: 6.00 Build 0)  -->
<svg version="1.1" id="Ebene_1" xmlns="http://www.w3.org/2000/svg" xmlns:xlink="http://www.w3.org/1999/xlink" x="0px" y="0px"
	 width="263.5905px" height="49.992px" viewBox="87.8635 0 263.5905 99.9840" style="enable-background:new 87.8635 0 263.5905 99.9840;" xml:space="preserve">
<style type="text/css">
	.st0{fill:#DADADA;}
	.st1{fill:#575756;}
	.st2{fill:#9D9D9C;}
</style>
<g>
	<g>
		<g>
			<g>
				<path d="M21.2,56.4c0,2.2,0.6,3.8,1.9,5.1c1.7,1.7,4.7,2.6,8.5,2.6c2.1,0,9.4-0.5,9.4-6.5c0-5.3-4.8-5.8-9.1-6.2l0,0
					c-4.4-0.4-7.7-0.9-7.7-3.9c0-1.5,0.8-2.6,2.3-3.3c1.6-0.7,3.4-0.9,5.2-0.9c1.4,0,4,0.2,5.4,1.7c0.7,0.7,1,1.7,1,2.8l2.2,0
					c0-1.6-0.5-3.2-1.5-4.3c-1.9-1.9-5-2.2-7.3-2.2c-3.2,0-6.3,0.7-8.2,2.6c-1,1-1.5,2.2-1.5,3.6c0,5.2,5.3,5.6,9.4,6
					c2,0.2,3.8,0.3,5.2,0.9c1.5,0.6,2.1,1.7,2.1,3.3c0,1-0.3,1.9-1,2.6c-1.6,1.6-5,1.8-6.2,1.8c-3,0-5.4-0.7-6.7-1.9
					c-0.9-0.9-1.4-2.1-1.4-3.7L21.2,56.4z M43.7,41.6v2.2c0,0,7.7,0,8.5,0c0,0.9,0,19.9,0,19.9h2.3c0,0,0-18.9,0-19.9
					c0.9,0,8.5,0,8.5,0v-2.2H43.7z M73,41.6l-10.1,22h2.5c0,0,2.9-6.3,3.1-6.8c0.6,0,10.5,0,11.1,0c0.2,0.5,3.1,6.8,3.1,6.8h2.5
					l-10.1-22H73z M74,44.7c0.7,1.5,4.1,8.9,4.6,10.1c-1.2,0-8,0-9.2,0C69.9,53.6,73.3,46.2,74,44.7z M90.8,41.6v22h2.3
					c0,0,0-8.7,0-9.6c0.9,0,8.9,0,8.9,0c3.9,0,4.8,0.8,4.9,4.2c0.1,3.6,0.2,4.7,0.7,5.2l0.1,0.1h2.4l-0.4-0.7
					c-0.4-0.7-0.5-2-0.5-5.6c0-2.2-1.2-3.8-3.1-4.5c2.5-1.1,3.5-3.3,3.5-5.2c0-4.1-2.5-6.1-7.6-6.1H90.8z M102.2,43.8
					c3.5,0,5.2,1.3,5.2,3.8c0,2.9-1.8,4.3-5.5,4.3c0,0-7.9,0-8.7,0c0-0.8,0-7.3,0-8.1C94,43.8,102.2,43.8,102.2,43.8z M135.8,41.6
					l-10.1,22h2.5c0,0,2.9-6.3,3.1-6.8c0.6,0,10.5,0,11.1,0c0.2,0.5,3.1,6.8,3.1,6.8h2.5l-10.1-22H135.8z M136.9,44.7
					c0.7,1.5,4.1,8.9,4.6,10.1c-1.2,0-8,0-9.2,0C132.8,53.6,136.2,46.2,136.9,44.7z M212.9,41.6l-10.1,22h2.5c0,0,2.9-6.3,3.1-6.8
					c0.6,0,10.5,0,11.1,0c0.2,0.5,3.1,6.8,3.1,6.8h2.5l-10.1-22H212.9z M214,44.7c0.7,1.5,4.1,8.9,4.6,10.1c-1.2,0-8,0-9.2,0
					C209.9,53.6,213.3,46.2,214,44.7z M153.6,41.6v22h15.9v-2.2c0,0-12.7,0-13.6,0c0-0.9,0-19.9,0-19.9H153.6z M174.4,41.6v22h15.8
					v-2.2c0,0-12.6,0-13.5,0c0-0.9,0-19.9,0-19.9H174.4z M195,41.6v22h2.3v-22H195z M248.8,41.6c0,0,0,16.1,0,18.4
					c-1.4-1.7-15.9-18.4-15.9-18.4h-2.3v22h2.3c0,0,0-16.2,0-18.4c1.4,1.7,15.9,18.4,15.9,18.4h2.3v-22H248.8z M286.2,41.6v22H304
					v-2.2c0,0-14.6,0-15.5,0c0-0.8,0-7.4,0-8.2c0.9,0,14.7,0,14.7,0v-2.1c0,0-13.8,0-14.7,0c0-0.8,0-6.6,0-7.4c0.9,0,15.3,0,15.3,0
					v-2.2H286.2z M257.5,52.7c0,7,4.8,11.4,11.9,11.4c6.6,0,10.6-4.5,11.1-8.9l0.1-0.5h-2.4l-0.1,0.4c-0.8,4.2-4.1,6.9-8.8,6.9
					c-6.8,0-9.6-4.8-9.6-9.3c0-5.5,4-9.3,9.7-9.3c4.3,0,7.5,2.1,8.3,5.5l0.1,0.4h2.4l-0.1-0.6c-1.1-4.7-5-7.5-10.7-7.5
					C261.4,41.2,257.5,47.1,257.5,52.7z"/>
				<g>
					<path d="M25,68.7h-3.9v-0.9H30v0.9h-3.9v9h-1V68.7z"/>
					<path d="M32.6,67.8h1V72h7.2v-4.2h1v9.9h-1v-4.8h-7.2v4.8h-1V67.8z"/>
					<path d="M45.5,67.8h7.9v0.9h-6.9v3.4h6.6V73h-6.6v3.7h7v0.9h-8V67.8z"/>
					<path d="M75.7,67.8h1.1l-3.3,9.9h-1.2l-3-8.5h0l-2.9,8.5h-1.2l-3.3-9.9H63l2.8,8.6h0l2.9-8.6H70l2.9,8.6h0L75.7,67.8z"/>
					<path d="M85.7,74.7h-5.2l-1.3,3H78l4.5-9.9h1.2l4.5,9.9h-1.2L85.7,74.7z M83.1,68.8l-2.2,4.9h4.4L83.1,68.8z"/>
					<path d="M93,73.5l-4.5-5.8h1.3l3.6,4.7l3.6-4.7h1.3l-4.5,5.8v4.2h-1V73.5z"/>
					<path d="M108,68.7h-3.9v-0.9h8.8v0.9H109v9h-1V68.7z"/>
					<path d="M115.5,67.8h1V72h7.2v-4.2h1v9.9h-1v-4.8h-7.2v4.8h-1V67.8z"/>
					<path d="M128.4,67.8h7.9v0.9h-6.9v3.4h6.6V73h-6.6v3.7h7v0.9h-8V67.8z"/>
					<path d="M146,67.8h7.9v0.9H147v3.4h6.6V73H147v3.7h7v0.9h-8V67.8z"/>
					<path d="M163.7,74.7h-5.2l-1.3,3H156l4.5-9.9h1.2l4.5,9.9h-1.2L163.7,74.7z M161.1,68.8l-2.2,4.9h4.4L161.1,68.8z"/>
					<path d="M169,67.8h5.4c1.7,0,3.2,0.6,3.2,2.7c0,1.1-0.7,2.1-1.9,2.4v0c1.4,0.2,1.7,1.1,1.8,2.8c0,0.6,0.1,1.8,0.3,2.1h-1.1
						c-0.2-0.2-0.2-0.9-0.3-2c0-1.8-0.7-2.3-2.4-2.3h-4v4.4h-1V67.8z M170,72.4h4.4c1.1,0,2.1-0.4,2.1-1.9c0-1.5-1.1-1.7-2-1.7H170
						V72.4z"/>
					<path d="M183.8,68.7h-3.9v-0.9h8.8v0.9h-3.9v9h-1V68.7z"/>
					<path d="M191.3,67.8h1V72h7.2v-4.2h1v9.9h-1v-4.8h-7.2v4.8h-1V67.8z"/>
					<path d="M219.5,73.9c-0.2,2.2-2.1,4-4.9,4c-3.2,0-5.3-2-5.3-5.2c0-2.3,1.4-5.2,5.3-5.2c2.2,0,4.5,1,4.8,3.6h-1
						c-0.3-1.9-2-2.7-3.8-2.7c-2.5,0-4.2,1.4-4.2,4.3c0,2.2,1.2,4.3,4.2,4.3c2.4,0,3.5-1.2,3.9-3.1H219.5z"/>
					<path d="M227.7,67.5c2.8,0,5.4,1.7,5.4,5.2c0,3.5-2.6,5.2-5.4,5.2c-2.8,0-5.4-1.7-5.4-5.2C222.3,69.2,224.9,67.5,227.7,67.5z
						 M227.7,77c2.2,0,4.3-1.3,4.3-4.3c0-3-2.1-4.3-4.3-4.3c-2.2,0-4.3,1.3-4.3,4.3C223.4,75.7,225.5,77,227.7,77z"/>
					<path d="M236.2,67.8h1.2l6.9,8.5h0v-8.5h1v9.9h-1.2l-7-8.5h0v8.5h-1V67.8z"/>
					<path d="M249,67.8h1.2l6.9,8.5h0v-8.5h1v9.9H257l-7-8.5h0v8.5h-1V67.8z"/>
					<path d="M262,67.8h7.9v0.9H263v3.4h6.6V73H263v3.7h7v0.9h-8V67.8z"/>
					<path d="M282.9,73.9c-0.2,2.2-2.1,4-4.9,4c-3.2,0-5.3-2-5.3-5.2c0-2.3,1.4-5.2,5.3-5.2c2.2,0,4.5,1,4.8,3.6h-1
						c-0.3-1.9-2-2.7-3.8-2.7c-2.5,0-4.2,1.4-4.2,4.3c0,2.2,1.2,4.3,4.2,4.3c2.4,0,3.5-1.2,3.9-3.1H282.9z"/>
					<path d="M288.4,68.7h-3.9v-0.9h8.8v0.9h-3.9v9h-1V68.7z"/>
					<path d="M302.7,70.6c-0.1-1.7-1.5-2.1-3.1-2.1c-1.6,0-2.8,0.6-2.8,1.8c0,1.3,1.2,1.6,3.6,2c1.8,0.3,3.6,0.7,3.6,2.6
						c0,2.4-2.2,3.1-4.1,3.1c-2.5,0-4.4-0.9-4.5-3.5h1c0.2,2.1,1.6,2.6,3.5,2.6c1.5,0,3-0.4,3-2c0-1.5-1.8-1.7-3.6-2
						c-2.4-0.4-3.6-1-3.6-2.6c0-2.2,2-2.9,3.9-2.9c2,0,4.1,0.7,4.1,3.1H302.7z"/>
				</g>
			</g>
		</g>
		<g>
			<path d="M393.3,47.1h0.6v-5h2.2v-0.5h-4.9v0.5h2.2V47.1z"/>
			<path d="M403.2,41.6h0.8v5.5h-0.6v-4.8h0l-2.4,4.8h-0.5l-2.4-4.8h0v4.8h-0.6v-5.5h0.8l2.5,4.8L403.2,41.6z"/>
		</g>
	</g>
	<g>
		<g>
			<path class="st0" d="M341.2,37c2.1-2.9,4.5-5.7,7-8.4c2.6-2.7,5.3-5.1,8.2-7.3l-3.1,12.3L341.2,37z"/>
			<path class="st1" d="M362.5,42.3c-3.6-0.4-7.2-1-10.8-1.9c-3.6-0.9-7.1-2-10.5-3.4l12.2-3.5L362.5,42.3z"/>
			<path class="st2" d="M356.5,21.3c1.5,3.3,2.7,6.7,3.8,10.3c1,3.6,1.8,7.2,2.3,10.8l-9.1-8.8L356.5,21.3z"/>
		</g>
		<g>
			<path class="st2" d="M336.9,62.3c-2.1-2.9-4.1-6-5.8-9.3c-1.8-3.3-3.2-6.7-4.5-10.1l10.7,6.7L336.9,62.3z"/>
			<path class="st1" d="M348.6,43.7c-1.5,3.3-3.2,6.5-5.1,9.7c-2,3.2-4.1,6.1-6.5,8.9l0.4-12.6L348.6,43.7z"/>
			<path class="st0" d="M326.7,42.9c3.6-0.4,7.2-0.5,11-0.4c3.7,0.1,7.4,0.5,10.9,1.2l-11.2,5.9L326.7,42.9z"/>
		</g>
		<g>
			<path class="st1" d="M359.6,74.1c-3.4,1.1-7,2-10.6,2.7c-3.7,0.6-7.3,1-10.9,1.1l9.7-8.1L359.6,74.1z"/>
			<path class="st2" d="M345.5,57.4c2.7,2.4,5.2,5,7.6,7.9c2.4,2.9,4.5,5.8,6.5,8.9l-11.9-4.3L345.5,57.4z"/>
			<path class="st0" d="M338,78c0.7-3.5,1.7-7.1,3-10.5c1.3-3.5,2.8-6.9,4.5-10l2.2,12.5L338,78z"/>
		</g>
		<g>
			<path class="st2" d="M377.9,56.3c0,3.6-0.2,7.3-0.7,10.9c-0.5,3.7-1.3,7.3-2.3,10.8l-4.7-11.7L377.9,56.3z"/>
			<path class="st0" d="M357.6,64.5c3.1-1.8,6.4-3.4,9.8-4.8c3.5-1.4,7-2.5,10.5-3.4l-7.8,10L357.6,64.5z"/>
			<path class="st1" d="M374.9,78c-3.1-1.8-6.2-3.8-9.1-6.1c-2.9-2.3-5.7-4.8-8.2-7.4l12.5,1.8L374.9,78z"/>
		</g>
		<g>
			<path class="st2" d="M366.6,33.3c3.4,1.1,6.8,2.5,10.2,4.1c3.4,1.6,6.5,3.5,9.5,5.5l-12.6,0.9L366.6,33.3z"/>
			<path class="st0" d="M368.1,55.2c-0.8-3.5-1.3-7.2-1.5-10.9c-0.3-3.7-0.2-7.4,0-11l7.1,10.5L368.1,55.2z"/>
			<path class="st1" d="M386.3,42.9c-2.7,2.4-5.6,4.7-8.6,6.8c-3.1,2.1-6.3,3.9-9.5,5.5l5.5-11.4L386.3,42.9z"/>
		</g>
	</g>
</g>
</svg>
