<?xml version="1.0" encoding="utf-8"?>
<!-- Generator: Adobe Illustrator 21.1.0, SVG Export Plug-In . SVG Version: 6.00 Build 0)  -->
<svg version="1.1" id="Capa_1" xmlns="http://www.w3.org/2000/svg" xmlns:xlink="http://www.w3.org/1999/xlink" x="0px" y="0px"
	 viewBox="0 0 159.2 159.2" style="enable-background:new 0 0 159.2 159.2;" xml:space="preserve">
<style type="text/css">
	.st0{fill:#FFFFFF;}
</style>
<g>
	<g>
		<path class="st0" d="M67.7,105.5V94.3H49.1v-3h18.6v-5.9H49.1v-3h18.7c0.3-2.9,2.5-5.2,5.3-5.9h-24v-3h34.6
			c1.1-1.9,3.1-3.2,5.4-3.2h4.3V54.6c0-3.3-2.7-6-6-6h-41c-3.3,0-6,2.8-6,6.1v49.8c0,3.3,2.7,6,6,6h23.6
			C68.6,109.3,67.7,107.5,67.7,105.5z M49.1,64.8h35.4v3H49.1V64.8z"/>
		<path class="st0" d="M114.9,79.4h-11.1v-2.7c0-1.8-1.5-3.3-3.3-3.3H89.1c-1.8,0-3.3,1.5-3.3,3.3v2.7H74.7c-2.2,0-4,1.8-4,4v22.1
			c0,2.2,1.8,4,4,4h2v1h4v-1h28.2v1h4v-1h2c2.2,0,4-1.8,4-4v-22C118.9,81.2,117.2,79.4,114.9,79.4z M102.2,79.4H87.5v-3.6h14.7V79.4
			z"/>
	</g>
</g>
</svg>
