<?xml version="1.0" encoding="utf-8"?>
<!-- Generator: Adobe Illustrator 19.1.0, SVG Export Plug-In . SVG Version: 6.00 Build 0)  -->
<!DOCTYPE svg PUBLIC "-//W3C//DTD SVG 1.1//EN" "http://www.w3.org/Graphics/SVG/1.1/DTD/svg11.dtd">
<svg version="1.1" id="Capa_1" xmlns="http://www.w3.org/2000/svg" xmlns:xlink="http://www.w3.org/1999/xlink" x="0px" y="0px"
	 width="512px" height="512px" viewBox="-223 25 512 512" style="enable-background:new -223 25 512 512;" xml:space="preserve">
<style type="text/css">
	.st0{fill:#FFFFFF;}
</style>
<g>
	<g>
		<path class="st0" d="M-30.9,202.5c7.9-11,16.7-21.5,26.4-31.6c9.7-10.1,20-19.2,30.7-27.6l-11.5,46L-30.9,202.5z"/>
		<path class="st0" d="M48.8,222.4c-13.5-1.4-27-3.7-40.5-7.1c-13.6-3.4-26.7-7.7-39.2-12.8l45.6-13.1L48.8,222.4z"/>
		<path class="st0" d="M26.1,143.4c5.5,12.3,10.3,25.2,14.1,38.6c3.9,13.4,6.7,26.9,8.5,40.4l-34.1-33L26.1,143.4z"/>
	</g>
	<g>
		<path class="st0" d="M-47.1,297.1c-8-10.9-15.3-22.5-21.9-34.8c-6.6-12.3-12.1-24.9-16.7-37.7l40.2,25.1L-47.1,297.1z"/>
		<path class="st0" d="M-3.5,227.4C-9,239.8-15.4,252-22.7,263.8c-7.4,11.9-15.5,23-24.3,33.3l1.7-47.4L-3.5,227.4z"/>
		<path class="st0" d="M-85.6,224.6c13.5-1.5,27.2-2,41.1-1.5c14,0.5,27.7,2,41,4.4l-41.9,22.3L-85.6,224.6z"/>
	</g>
	<g>
		<path class="st0" d="M38,341.7c-12.9,4.2-26.2,7.6-39.9,10c-13.8,2.4-27.5,3.8-41,4.2l36.4-30.5L38,341.7z"/>
		<path class="st0" d="M-14.9,278.8c10.1,9,19.7,18.9,28.6,29.5c9,10.7,17.1,21.9,24.2,33.4l-44.6-16.2L-14.9,278.8z"/>
		<path class="st0" d="M-43,356c2.8-13.2,6.5-26.5,11.3-39.6c4.8-13.1,10.4-25.7,16.8-37.7l8.2,46.7L-43,356z"/>
	</g>
	<g>
		<path class="st0" d="M106.6,274.6c0,13.5-0.9,27.2-2.8,41c-1.9,13.8-4.9,27.3-8.6,40.3l-17.8-44L106.6,274.6z"/>
		<path class="st0" d="M30.4,305.4c11.7-6.8,24-12.9,36.9-18.1c13-5.2,26.1-9.5,39.3-12.7L77.4,312L30.4,305.4z"/>
		<path class="st0" d="M95.2,356C83.4,349.3,72,341.6,61,333.1c-11-8.6-21.2-17.9-30.6-27.7l47,6.6L95.2,356z"/>
	</g>
	<g>
		<path class="st0" d="M64,188.6c12.9,4.1,25.6,9.2,38.2,15.3c12.6,6.1,24.5,13.1,35.7,20.7l-47.3,3.3L64,188.6z"/>
		<path class="st0" d="M69.8,270.6c-2.9-13.2-4.8-26.8-5.8-40.7c-1-13.9-0.9-27.7,0.1-41.3l26.5,39.3L69.8,270.6z"/>
		<path class="st0" d="M137.9,224.6c-10,9.1-20.8,17.6-32.4,25.4c-11.6,7.8-23.5,14.7-35.8,20.6l20.8-42.6L137.9,224.6z"/>
	</g>
</g>
<path class="st0" d="M-85.7,414.1c0,1.7,0.5,2.9,1.5,3.9c1.3,1.3,3.6,2,6.5,2c1.6,0,7.2-0.4,7.2-5c0-4.1-3.7-4.5-7-4.8l0,0
	c-3.4-0.3-5.9-0.7-5.9-3c0-1.1,0.6-2,1.8-2.5c1.2-0.6,2.6-0.7,4-0.7c1.1,0,3,0.2,4.2,1.3c0.5,0.5,0.8,1.3,0.8,2.1l1.7,0
	c0-1.2-0.4-2.5-1.2-3.3c-1.4-1.4-3.8-1.7-5.6-1.7c-2.4,0-4.8,0.5-6.3,2c-0.8,0.8-1.2,1.7-1.2,2.8c0,4,4.1,4.3,7.3,4.6
	c1.5,0.1,2.9,0.3,4,0.7c1.1,0.5,1.6,1.3,1.6,2.5c0,0.8-0.3,1.5-0.8,2c-1.2,1.2-3.8,1.4-4.7,1.4c-2.3,0-4.2-0.5-5.1-1.5
	c-0.7-0.7-1.1-1.6-1.1-2.8L-85.7,414.1z M-67.8,402.8v1.7c0,0,5.9,0,6.6,0c0,0.7,0,15.3,0,15.3h1.7c0,0,0-14.6,0-15.3
	c0.7,0,6.6,0,6.6,0v-1.7H-67.8z M-44.7,402.8l-7.8,16.9h1.9c0,0,2.2-4.8,2.4-5.2c0.4,0,8.1,0,8.5,0c0.2,0.4,2.4,5.2,2.4,5.2h2
	l-7.8-16.9H-44.7z M-43.9,405.1c0.5,1.2,3.2,6.9,3.5,7.7c-0.9,0-6.1,0-7.1,0C-47,412-44.4,406.3-43.9,405.1z M-30.4,402.8v16.9h1.8
	c0,0,0-6.7,0-7.4c0.7,0,6.9,0,6.9,0c3,0,3.7,0.6,3.8,3.2c0.1,2.7,0.2,3.6,0.6,4l0.1,0.1h1.8l-0.3-0.5c-0.3-0.5-0.4-1.6-0.4-4.3
	c0-1.7-0.9-2.9-2.4-3.4c1.9-0.9,2.7-2.6,2.7-4c0-3.1-1.9-4.7-5.8-4.7H-30.4z M-21.7,404.4c2.7,0,4,1,4,2.9c0,2.2-1.4,3.3-4.2,3.3
	c0,0-6,0-6.7,0c0-0.6,0-5.6,0-6.3C-28,404.4-21.7,404.4-21.7,404.4z M4.2,402.8l-7.8,16.9h1.9c0,0,2.2-4.8,2.4-5.2
	c0.4,0,8.1,0,8.5,0c0.2,0.4,2.4,5.2,2.4,5.2h1.9l-7.8-16.9H4.2z M5,405.1c0.5,1.2,3.1,6.9,3.5,7.7c-0.9,0-6.1,0-7.1,0
	C1.8,412,4.5,406.3,5,405.1z M65.8,402.8L58,419.7h1.9c0,0,2.2-4.8,2.4-5.2c0.4,0,8.1,0,8.5,0c0.2,0.4,2.4,5.2,2.4,5.2h1.9
	l-7.8-16.9H65.8z M66.6,405.1c0.5,1.2,3.1,6.9,3.5,7.7c-0.9,0-6.1,0-7.1,0C63.4,412,66,406.3,66.6,405.1z M19,402.8v16.9h12.2V418
	c0,0-9.7,0-10.4,0c0-0.7,0-15.3,0-15.3H19z M35,402.8v16.9h12.2V418c0,0-9.7,0-10.4,0c0-0.7,0-15.3,0-15.3H35z M50.8,402.8v16.9h1.7
	v-16.9H50.8z M93.9,402.8c0,0,0,12.4,0,14.1c-1.1-1.3-12.2-14.1-12.2-14.1h-1.8v16.9h1.7c0,0,0-12.4,0-14.1
	c1.1,1.3,12.3,14.1,12.3,14.1h1.8v-16.9H93.9z M124.4,402.8v16.9h13.7V418c0,0-11.2,0-11.9,0c0-0.6,0-5.7,0-6.3c0.7,0,11.3,0,11.3,0
	v-1.6c0,0-10.6,0-11.3,0c0-0.6,0-5.1,0-5.7c0.7,0,11.8,0,11.8,0v-1.7H124.4z M101.2,411.2c0,5.3,3.7,8.8,9.2,8.8
	c5.1,0,8.2-3.4,8.6-6.8l0-0.4h-1.8l-0.1,0.3c-0.6,3.3-3.2,5.3-6.7,5.3c-5.3,0-7.4-3.7-7.4-7.2c0-4.2,3-7.2,7.4-7.2
	c3.3,0,5.7,1.6,6.4,4.3l0.1,0.3h1.8l-0.1-0.4c-0.8-3.6-3.8-5.7-8.2-5.7C104.2,402.4,101.2,407,101.2,411.2z"/>
<g>
	<path class="st0" d="M143.4,403.3h-1.6v-0.5h3.8v0.5H144v3.7h-0.6V403.3z"/>
	<path class="st0" d="M150.3,402.7h0.9v4.2h-0.6v-3.5h0l-1.6,3.5h-0.6l-1.6-3.4h0v3.4h-0.6v-4.2h0.9l1.7,3.5L150.3,402.7z"/>
</g>
</svg>
