<?xml version="1.0" encoding="utf-8"?>
<!-- Generator: Adobe Illustrator 19.1.0, SVG Export Plug-In . SVG Version: 6.00 Build 0)  -->
<!DOCTYPE svg PUBLIC "-//W3C//DTD SVG 1.1//EN" "http://www.w3.org/Graphics/SVG/1.1/DTD/svg11.dtd">
<svg version="1.1" id="Capa_1" xmlns="http://www.w3.org/2000/svg" xmlns:xlink="http://www.w3.org/1999/xlink" x="0px" y="0px"
	 width="512px" height="512px" viewBox="-223 25 512 512" style="enable-background:new -223 25 512 512;" xml:space="preserve">
<style type="text/css">
	.st0{fill:#FFFFFF;}
</style>
<g>
	<g>
		<path class="st0" d="M62.7,374H44.3V205.1H122l-32.9,52.2c-1.6,2.6-0.9,6.2,1.8,7.8c0.9,0.6,2,0.9,3,0.9c1.9,0,3.7-0.9,4.8-2.6
			l28.5-45.3l28.5,45.3c1.6,2.6,5.2,3.5,7.8,1.8c2.6-1.6,3.5-5.2,1.8-7.8l-32.9-52.2h0.4c4.8,0,8.8-3.9,8.8-8.8
			c0-4.8-3.9-8.8-8.8-8.8H68.2c-3.6-5.3-9-9.3-15.4-11.3c-0.9-10.2-9.4-18.2-19.9-18.2s-19,8-19.9,18.2c-6.3,1.9-11.7,5.9-15.4,11.3
			h-64.6c-4.8,0-8.8,3.9-8.8,8.8c0,4.8,3.9,8.8,8.8,8.8h0.4l-32.9,52.2c-1.6,2.6-0.9,6.2,1.8,7.8c0.9,0.6,2,0.9,3,0.9
			c1.9,0,3.7-0.9,4.8-2.6l28.5-45.3l28.5,45.3c1.6,2.6,5.2,3.5,7.8,1.8c2.6-1.6,3.5-5.2,1.8-7.8l-32.9-52.2h77.6V374H3.3
			c-11,0-20,9-20,20h99.4C82.7,382.8,73.8,374,62.7,374z"/>
		<path class="st0" d="M-19.5,272h-83.3c-1.6,0-3,1.3-3,3c0,24.6,20,44.7,44.7,44.7s44.7-20,44.7-44.7
			C-16.5,273.4-17.9,272-19.5,272z"/>
		<path class="st0" d="M168.8,272H85.5c-1.6,0-3,1.3-3,3c0,24.6,20,44.7,44.7,44.7s44.7-20,44.7-44.7
			C171.9,273.4,170.5,272,168.8,272z"/>
	</g>
</g>
</svg>
