<?xml version="1.0" encoding="utf-8"?>
<!-- Generator: Adobe Illustrator 20.1.0, SVG Export Plug-In . SVG Version: 6.00 Build 0)  -->
<svg version="1.1" id="Capa_1" xmlns="http://www.w3.org/2000/svg" xmlns:xlink="http://www.w3.org/1999/xlink" x="0px" y="0px"
	 viewBox="0 0 512 512" style="enable-background:new 0 0 512 512;" xml:space="preserve">
<style type="text/css">
	.st0{fill:#FFFFFF;}
</style>
<g>
	<path class="st0" d="M357,351.7V160.3c0-2.9-2.4-5.3-5.3-5.3h-60.6c-2.9,0-5.3,2.4-5.3,5.3v14c0,2.9,2.4,5.3,5.3,5.3h41.3v153h-153
		v-153h41.3c2.9,0,5.3-2.4,5.3-5.3v-14c0-2.9-2.4-5.3-5.3-5.3h-60.6c-2.9,0-5.3,2.4-5.3,5.3v191.5c0,2.9,2.4,5.3,5.3,5.3h191.5
		C354.6,357,357,354.6,357,351.7z"/>
	<path class="st0" d="M263,135.7h-14c-2.9,0-5.3,2.4-5.3,5.3v109.4L220,226.6c-1-1-2.3-1.5-3.7-1.5c-1.4,0-2.7,0.5-3.7,1.5l-9.9,9.9
		c-1,1-1.5,2.3-1.5,3.7c0,1.4,0.5,2.7,1.5,3.7l49.6,49.6c1,1,2.3,1.5,3.7,1.5s2.7-0.5,3.7-1.5l49.6-49.6c1-1,1.5-2.3,1.5-3.7
		c0-1.4-0.5-2.7-1.5-3.7l-9.9-9.9c-2-2-5.4-2-7.4,0l-23.8,23.8V140.9C268.3,138,265.9,135.7,263,135.7z"/>
</g>
</svg>
