<?xml version="1.0" encoding="utf-8"?>
<!-- Generator: Adobe Illustrator 19.1.0, SVG Export Plug-In . SVG Version: 6.00 Build 0)  -->
<!DOCTYPE svg PUBLIC "-//W3C//DTD SVG 1.1//EN" "http://www.w3.org/Graphics/SVG/1.1/DTD/svg11.dtd">
<svg version="1.1" id="Capa_1" xmlns="http://www.w3.org/2000/svg" xmlns:xlink="http://www.w3.org/1999/xlink" x="0px" y="0px"
	 width="512px" height="512px" viewBox="-223 25 512 512" style="enable-background:new -223 25 512 512;" xml:space="preserve">
<style type="text/css">
	.st0{fill:#FFFFFF;}
</style>
<g>
	<g>
		<path class="st0" d="M-12.8,223.7h-29v27.1h29V223.7z M-8.5,352.8c-4.3,5.8-10.9,8.7-19.8,8.7c-2,0-4.3-0.4-6.7-1.3
			c-2.5-0.9-4.8-2.2-6.9-4c-2.2-1.8-4-4.2-5.4-7c-1.4-2.9-2.2-6.4-2.2-10.6c0-3.6,0.5-6.7,1.4-9.3c0.9-2.6,2.2-4.9,3.9-6.9
			c1.7-2,3.5-3.9,5.6-5.7c2.1-1.8,4.3-3.7,6.6-5.7c2.9-2.5,5.4-4.9,7.5-7.5c2.1-2.5,3.9-5.4,5.3-8.8c1.4-3.3,2.5-7.2,3.1-11.6
			c0.6-4.4,1-9.8,1-16.1h-23.4c0,5.2-0.5,9.6-1.4,13.2c-0.9,3.6-2.3,6.8-4,9.4c-1.7,2.7-3.8,5.1-6.1,7.3c-2.3,2.2-4.8,4.4-7.6,6.7
			c-2.5,2-4.8,4.1-7,6.2c-2.2,2.1-4.3,4.5-6.1,7.1c-1.8,2.7-3.2,5.8-4.3,9.5c-1.1,3.7-1.6,8.1-1.6,13.1c0,6.8,1.2,12.8,3.7,18.1
			c2.5,5.3,5.8,9.7,10.1,13.3c4.3,3.6,9.2,6.4,14.9,8.3c5.7,1.9,11.9,2.9,18.5,2.9c7.9,0,15.1-1.3,21.6-3.8
			c6.4-2.5,11.9-6.1,16.5-10.6c4.5-4.5,8-10,10.4-16.4c2.4-6.4,3.6-13.4,3.6-21H-2.1C-2.1,339.6-4.3,347.1-8.5,352.8z M139.3,205.5
			c-2.5-5.5-5.8-10.1-10.1-13.8c-4.3-3.7-9.2-6.5-14.9-8.4c-5.7-1.9-11.9-2.9-18.5-2.9c-7.9,0-15.1,1.3-21.6,3.8
			c-6.4,2.5-11.9,6.1-16.5,10.7c-4.5,4.6-8,10.2-10.4,16.7s-3.6,13.7-3.6,21.7h24.7c0-9.8,2.1-17.7,6.4-23.5
			c4.3-5.8,10.9-8.8,19.8-8.8c1.9,0,4,0.4,6.5,1.3c2.5,0.9,4.8,2.2,6.9,4.1c2.2,1.9,4,4.4,5.5,7.5c1.5,3.1,2.3,6.8,2.3,11.2
			c0,3.6-0.5,6.7-1.4,9.3c-0.9,2.6-2.2,4.9-3.9,7c-1.7,2.1-3.5,4-5.6,5.7c-2.1,1.7-4.3,3.6-6.6,5.6c-2.9,2.5-5.4,4.9-7.5,7.5
			c-2.1,2.5-3.9,5.5-5.3,8.8c-1.4,3.3-2.5,7.2-3.1,11.6c-0.7,4.4-1,9.8-1,16.1h23.4c0-5.2,0.5-9.6,1.4-13.2c0.9-3.6,2.3-6.7,4-9.4
			c1.7-2.7,3.8-5.1,6.1-7.3c2.3-2.2,4.8-4.4,7.6-6.7c2.3-2,4.6-4.1,6.9-6.2c2.3-2.1,4.4-4.5,6.2-7.1c1.8-2.7,3.2-5.8,4.3-9.5
			c1.1-3.7,1.6-8,1.6-13.1C143,217.2,141.8,211,139.3,205.5z M78.2,338.8h29v-27.1h-29V338.8z"/>
	</g>
</g>
</svg>
