<?xml version="1.0" encoding="utf-8"?>
<!-- Generator: Adobe Illustrator 18.1.1, SVG Export Plug-In . SVG Version: 6.00 Build 0)  -->
<svg version="1.1" id="Capa_1" xmlns="http://www.w3.org/2000/svg" xmlns:xlink="http://www.w3.org/1999/xlink" x="0px" y="0px"
	 viewBox="0 0 512 512" enable-background="new 0 0 512 512" xml:space="preserve">
<g>
	<g>
		<path fill="#FFFFFF" d="M408.9,318.6c-1.9-7-11.8-15.4-17.4-17.4c-6.1-2.3-19-8.1-32.9-15.2c-12.7-6.3-21.1-14.6-24.9-18.3
			c-0.7-0.7-1.2-1.2-1.5-1.4c-1.1-0.9-1.6-2.6-1.7-3.8c0-0.8,0.2-1.3,0.3-1.4c1.4-1.4,2.1-3,4.1-8.5c0.9-2.4,2-6.6,2.4-8.4
			c0.7,0,1.8-0.1,2.7-0.4c1.9-0.5,3.3-2.7,4.7-4.8c0.4-0.5,0.6-1,1-1.4c1.8-2.5,3.3-15.6,3.5-19.6c0.1-3.9-2.1-6.4-3.1-7.4
			c0.3-1.4,1.1-5.8,2.7-16.4c0.5-3.6,2.2-14.6-12.3-35c-3.4-4.8-10-6.7-16.4-8.5c-2.3-0.6-4.5-1.3-6.6-2.1c-2.5-0.9-5.6-1.4-9.2-1.4
			c-5.9,0-12.8,1.4-16.9,2.3l3,1.5c4-0.8,8.3-1.6,14-1.6c3.3,0,6.2,0.5,8.5,1.3c2.2,0.8,4.5,1.4,6.8,2.1c6.1,1.7,12.2,3.5,15.3,7.7
			c9.3,13,13.3,24.2,11.9,33.4c-2,13.5-2.8,16.8-2.8,16.8l-0.2,0.7l0.5,0.5c0.1,0.1,2.9,2.3,2.8,6.1c-0.2,5.1-1.9,16.7-3.1,18.4
			c-0.4,0.5-0.6,1-1,1.5c-1,1.5-2.3,3.6-3.4,3.9c-1.3,0.4-2.7,0.3-3.1,0.4h-0.9l-0.2,0.8c0,0.1-1.4,6-2.5,8.9
			c-1.9,5.1-2.5,6.8-3.6,7.8c-0.6,0.6-1,1.7-0.9,3c0.1,1.5,0.7,3.9,2.4,5.3c0.3,0.3,0.8,0.7,1.4,1.4c3.7,3.6,12.4,12.1,25.4,18.6
			c14,7,27,13,33.1,15.3c5.2,1.9,14.3,9.8,16,15.9c3.8,13.8,4.3,20.2,4.2,21.4h0.5c0.4,0,0.8-0.2,1.1-0.5
			C413,339.4,414.2,337.9,408.9,318.6z M368,390.9h20.6c0.5,0,1-0.3,1.4-0.7c0.6-0.8,2.1-2.7-4.7-27.6c-2.2-8.9-14.9-19.7-22-22.3
			c-7.8-2.9-24.4-10.5-42.3-19.5c-16.3-8.1-27.3-18.9-31.9-23.5c-0.9-0.9-1.5-1.5-2-1.9c-1.4-1.2-2.1-3.3-2.2-4.9
			c0-1.1,0.2-1.6,0.4-1.7c1.7-1.7,2.6-3.9,5.2-11c1.2-3.2,2.5-8.5,3.1-10.8c0.9-0.1,2.3-0.2,3.5-0.5c2.4-0.6,4.2-3.4,6.1-6.1
			c0.5-0.6,0.8-1.3,1.3-1.8c2.3-3.3,4.3-20.1,4.5-25.2c0.2-5-2.6-8.2-4-9.5c0.4-1.9,1.4-7.5,3.4-21.1c0.7-4.7,2.8-18.9-15.9-45
			c-4.4-6.1-12.9-8.6-21.1-11c-2.9-0.8-5.8-1.7-8.5-2.6c-3.3-1.2-7.2-1.8-11.9-1.8c-7.5,0-15.5,1.5-20.7,2.5l-1.6,0.3
			c-7.3,1.4-15.3,8.9-17.3,11c-0.8,0.1-2.5,0.2-4.9,0.6c-3.3,0.6-8.6,9.8-10.4,14.4c-2.4,6.1-4.6,24.1-3.4,34.9
			c0.5,4.2,1.4,10.9,3.5,19c-3.3,2-3.3,6.3-3.2,9.1c0,0.4,0,0.7,0,1.1c0,2.9,1.1,15.3,4.6,22.8c3.3,7.1,9.6,10.6,10.5,11
			c0.2,0.1,1.1,1,1.4,3.6c0.4,3.3,2.6,8.4,4.5,12.4c0.4,0.8,0.7,1.6,1,2.3c0.4,0.8,0.8,1.6,1.3,2.4c0.7,1.3,1.8,3.1,1.4,3.8
			c-0.6,1-2.2,1.2-3.8,1.4c-0.5,0.1-0.8,0.1-1.2,0.2c-2.8,0.5-4.2,4.2-4.4,5c-1.7,3.3-6.5,11.8-9.3,14.1c-3.3,2.6-12.3,7-23,11
			c-7.2,2.8-22,10-31.8,14.8c-3.6,1.8-6.4,3.2-8.1,4c-6.9,3.3-14.2,12.2-16.2,18.1c-8.4,25.2-7,27.2-6.3,28.1
			c0.4,0.5,0.9,0.7,1.4,0.7c0.4,0,239.5,0.1,239.6,0L368,390.9z"/>
	</g>
</g>
</svg>
