<?xml version="1.0" encoding="utf-8"?>
<!-- Generator: Adobe Illustrator 20.1.0, SVG Export Plug-In . SVG Version: 6.00 Build 0)  -->
<svg version="1.1" id="Capa_1" xmlns="http://www.w3.org/2000/svg" xmlns:xlink="http://www.w3.org/1999/xlink" x="0px" y="0px"
	 viewBox="0 0 98.5 98.5" style="enable-background:new 0 0 98.5 98.5;" xml:space="preserve">
<style type="text/css">
	.st0{fill:#FFFFFF;}
</style>
<g>
	<g>
		<path class="st0" d="M59.4,46.4H39.1c-1.9,0-3.5,1.6-3.5,3.5v19c0,1.9,1.6,3.5,3.5,3.5h20.3c1.9,0,3.5-1.6,3.5-3.5v-19
			C62.9,47.9,61.3,46.4,59.4,46.4z M56.4,48.5c0.9,0,1.7,0.8,1.7,1.7s-0.8,1.7-1.7,1.7s-1.7-0.8-1.7-1.7
			C54.8,49.3,55.5,48.5,56.4,48.5z M42,48.5c0.9,0,1.7,0.8,1.7,1.7s-0.8,1.7-1.7,1.7s-1.7-0.8-1.7-1.7S41.1,48.5,42,48.5z
			 M59.2,67.7c0,0.5-0.4,1-1,1h-18c-0.5,0-1-0.4-1-1V55.1c0-0.5,0.4-1,1-1h18.1c0.5,0,1,0.4,1,1C59.2,55.1,59.2,67.7,59.2,67.7z"/>
		<path class="st0" d="M65.7,34.6c-0.3,0-0.6-0.2-0.8-0.4c-2.2-3.1-5.9-5-9.8-5c-0.3,0-0.6,0-0.8,0c-0.3,0-0.5-0.1-0.7-0.2
			c-2.4-1.8-5.2-2.8-8.2-2.8c-5.4,0-10.1,3.2-12.3,7.9c-0.1,0.3-0.5,0.6-0.8,0.6c-5.9,0.7-10.6,5.8-10.6,12c0,6.5,5.2,11.8,11.6,12
			v-4.8c-3.8-0.2-6.8-3.4-6.8-7.3c0-4,3.3-7.3,7.3-7.3c0.2,0,0.4,0,0.6,0c1.2,0.1,2.2-0.7,2.5-1.8c1-3.9,4.5-6.7,8.5-6.7
			c2.3,0,4.5,0.9,6.1,2.5c0.6,0.6,1.4,0.8,2.1,0.6c0.5-0.1,1-0.2,1.5-0.2c2.8,0,5.3,1.6,6.6,4.1c0.4,0.9,1.4,1.4,2.4,1.3
			c0.2,0,0.5,0,0.7,0c4,0,7.3,3.3,7.3,7.3c0,3.9-3,7-6.8,7.3v4.8c6.4-0.3,11.6-5.5,11.6-12C76.9,40.3,71.9,35,65.7,34.6z"/>
		<g>
			<path class="st0" d="M49,60.5c0,0,0.1,0,0.1,0h0.2c0.2,0,0.5,0,0.7-0.1c0.2-0.1,0.4-0.2,0.6-0.3c0.2-0.1,0.3-0.3,0.4-0.5
				c0.1-0.2,0.1-0.4,0.1-0.7c0-0.5-0.2-0.9-0.5-1.2c-0.3-0.3-0.7-0.4-1.2-0.4c-0.3,0-0.6,0.1-0.8,0.2c-0.2,0.1-0.4,0.3-0.6,0.5
				s-0.3,0.4-0.3,0.7c-0.1,0.3-0.1,0.5-0.1,0.8h-1.1c0-0.5,0.1-0.9,0.2-1.3s0.3-0.7,0.6-1s0.5-0.5,0.9-0.6c0.4-0.2,0.8-0.2,1.3-0.2
				c0.4,0,0.8,0.1,1.2,0.2c0.4,0.1,0.7,0.3,0.9,0.5c0.3,0.2,0.5,0.5,0.6,0.8s0.2,0.7,0.2,1.1c0,0.4-0.1,0.8-0.4,1.1
				c-0.3,0.3-0.6,0.6-0.9,0.8v0c0.6,0.1,1,0.4,1.3,0.8c0.3,0.4,0.4,0.9,0.4,1.5c0,0.5-0.1,0.9-0.3,1.3c-0.2,0.4-0.4,0.7-0.7,0.9
				c-0.3,0.2-0.6,0.4-1,0.5c-0.4,0.1-0.8,0.2-1.3,0.2c-0.5,0-0.9-0.1-1.3-0.2s-0.7-0.3-1-0.6c-0.3-0.3-0.5-0.6-0.6-1
				c-0.1-0.4-0.2-0.8-0.2-1.3h1.1c0,0.6,0.2,1.1,0.5,1.5c0.3,0.4,0.8,0.6,1.5,0.6c0.3,0,0.5,0,0.8-0.1c0.3-0.1,0.5-0.2,0.7-0.4
				c0.2-0.2,0.3-0.4,0.5-0.6c0.1-0.2,0.2-0.5,0.2-0.8c0-0.3-0.1-0.6-0.2-0.8S51.1,62,51,61.9c-0.2-0.2-0.4-0.3-0.6-0.4
				c-0.2-0.1-0.5-0.1-0.8-0.1c-0.2,0-0.5,0-0.7,0v-1C48.9,60.5,48.9,60.5,49,60.5z"/>
		</g>
	</g>
</g>
</svg>
