<?xml version="1.0" encoding="utf-8"?>
<!-- Generator: Adobe Illustrator 19.1.0, SVG Export Plug-In . SVG Version: 6.00 Build 0)  -->
<!DOCTYPE svg PUBLIC "-//W3C//DTD SVG 1.1//EN" "http://www.w3.org/Graphics/SVG/1.1/DTD/svg11.dtd">
<svg version="1.1" id="Capa_1" xmlns="http://www.w3.org/2000/svg" xmlns:xlink="http://www.w3.org/1999/xlink" x="0px" y="0px"
	 width="512px" height="512px" viewBox="-223 25 512 512" style="enable-background:new -223 25 512 512;" xml:space="preserve">
<style type="text/css">
	.st0{fill:#FFFFFF;}
</style>
<g>
	<g>
		<g>
			<path class="st0" d="M161.3,314.5l-0.2-30.1l28.9-16.2L32.5,185.1l-156.7,84.7l62.8,36.1l0.1,21.4l0,1.7l0.6-0.3
				c-0.7,0.9-1.1,1.8-1.1,2.7c0,10.5,42.6,18.9,95.1,18.6c52.5-0.3,95-9.1,94.9-19.6c0-0.9-0.5-1.8-1.1-2.7l0.6,0.3v-1.7l-0.1-21.5
				l27.2-16.9l0.1,26.6c-3,1.3-5.1,4.2-5.1,7.7c0,4.5,3.7,8.2,8.3,8.1c4.6,0,8.2-3.7,8.2-8.2C166.4,318.6,164.3,315.7,161.3,314.5z
				 M33.3,342.9c-46.6,0.3-84.4-4.9-84.4-11.4c0-6.5,37.7-12,84.3-12.2c46.6-0.3,84.4,4.8,84.4,11.4
				C117.6,337.1,79.9,342.6,33.3,342.9z M125.5,287.4c-6.3-6.6-28.9-24.1-92.6-23.8c-63.7,0.3-86.1,18.1-92.3,24.8l0-6.3
				c0,0,18.1-27.5,92.3-27.9c74.2-0.4,92.6,26.9,92.6,26.9L125.5,287.4z M151.6,332.1l-3.2,46.6c9.9-15.6,18.2-9.8,18.2-9.8
				l-0.2-36.8C155.7,336.2,151.6,332.1,151.6,332.1z"/>
		</g>
	</g>
</g>
</svg>
