<?xml version="1.0" encoding="utf-8"?>
<!-- Generator: Adobe Illustrator 19.1.0, SVG Export Plug-In . SVG Version: 6.00 Build 0)  -->
<!DOCTYPE svg PUBLIC "-//W3C//DTD SVG 1.1//EN" "http://www.w3.org/Graphics/SVG/1.1/DTD/svg11.dtd">
<svg version="1.1" id="Laag_1" xmlns="http://www.w3.org/2000/svg" xmlns:xlink="http://www.w3.org/1999/xlink" x="0px" y="0px"
	 width="200px" height="200px" viewBox="-379 181 200 200" style="enable-background:new -379 181 200 200;" xml:space="preserve">
<style type="text/css">
	.st0{fill:#FFFFFF;}
</style>
<g>
	<rect x="-336" y="306" class="st0" width="24" height="44"/>
	<rect x="-241" y="285" class="st0" width="24" height="65"/>
	<path class="st0" d="M-289.5,221.6c-24.2,0-43.9,19.7-43.9,43.9c0,2.3,0.2,4.5,0.5,6.7l-85.1,32.9l-0.5,0.2l6.5,16.8l85.5-33.1
		c5.5,8.6,13.8,15.1,23.6,18.3V350h23v-41.6c2.8-0.6,5.4-1.5,8-2.6V350h24v-59h-5.8c5.1-7.2,8.2-16,8.2-25.5
		C-245.6,241.3-265.3,221.6-289.5,221.6z M-270,282v19c-2,1.1-3.9,1.9-5.7,2.6c-1.6,0.6-3.3,1.1-5.3,1.6V295h-31v4.7
		c-11.1-7.3-18.5-19.9-18.5-34.2c0-22.6,18.4-40.9,40.9-40.9s40.9,18.4,40.9,40.9c0,5.9-1.3,11.4-3.5,16.5H-270z M-332.6,274.4
		c0.1,0.5,0.2,0.9,0.3,1.4C-332.4,275.3-332.5,274.8-332.6,274.4z M-332.7,273.6c0,0.2,0.1,0.4,0.1,0.7
		C-332.6,274-332.7,273.8-332.7,273.6z"/>
</g>
</svg>
