<?xml version="1.0" encoding="utf-8"?>
<!-- Generator: Adobe Illustrator 19.1.0, SVG Export Plug-In . SVG Version: 6.00 Build 0)  -->
<!DOCTYPE svg PUBLIC "-//W3C//DTD SVG 1.1//EN" "http://www.w3.org/Graphics/SVG/1.1/DTD/svg11.dtd">
<svg version="1.1" id="Capa_1" xmlns="http://www.w3.org/2000/svg" xmlns:xlink="http://www.w3.org/1999/xlink" x="0px" y="0px"
	 width="512px" height="512px" viewBox="-223 25 512 512" style="enable-background:new -223 25 512 512;" xml:space="preserve">
<style type="text/css">
	.st0{fill:#FFFFFF;}
</style>
<g>
	<g>
		<path class="st0" d="M32.9,161.5c-66.4,0-120.4,54-120.4,120.4c0,66.4,54,120.4,120.4,120.4s120.4-54,120.4-120.4
			C153.4,215.5,99.3,161.5,32.9,161.5z M32.9,389.3c-59.3,0-107.4-48.1-107.4-107.4c0-59.3,48.1-107.4,107.4-107.4
			c59.3,0,107.4,48.1,107.4,107.4C140.3,341.2,92.2,389.3,32.9,389.3z M66.5,278.4l57.8-1.5l8.8-20.4L72,258.1
			c-14.7,0.4-25.6,4.7-34.4,24.5l-25.7,59.9l60.8-1.4c13-0.3,25.4-2.5,34.6-24.6l12.1-28l-52.2,1.4l-8.8,19.8l31.6-0.8l-1.5,3.8
			c-1.6,4.1-5.2,8-11.6,8.1l-36,1l15.7-36.6C58.6,280.6,61.7,278.5,66.5,278.4z M37.6,259.4l-56.4,1l1.4-3c1.4-3.5,4.4-8.5,10.3-8.7
			l57.8-1.5l8.8-20.4l-60.9,1.6C-16.5,228.8-27.2,233-36,253L-61.9,313l20.4-0.5l13.7-31.8l56-0.9L37.6,259.4z"/>
	</g>
</g>
</svg>
