<?xml version="1.0" encoding="utf-8"?>
<!-- Generator: Adobe Illustrator 21.1.0, SVG Export Plug-In . SVG Version: 6.00 Build 0)  -->
<svg version="1.1" id="Capa_1" xmlns="http://www.w3.org/2000/svg" xmlns:xlink="http://www.w3.org/1999/xlink" x="0px" y="0px"
	 viewBox="0 0 485.2 485.2" style="enable-background:new 0 0 485.2 485.2;" xml:space="preserve">
<style type="text/css">
	.st0{fill:#FFFFFF;}
</style>
<g>
	<g>
		<path class="st0" d="M302.4,212.7c0-49.5-40.2-89.7-89.7-89.7c-49.5,0-89.7,40.2-89.7,89.7s40.2,89.7,89.7,89.7
			C262.2,302.4,302.4,262.2,302.4,212.7z M212.7,280c-37.1,0-67.3-30.2-67.3-67.3s30.2-67.3,67.3-67.3c37.1,0,67.3,30.2,67.3,67.3
			S249.8,280,212.7,280z"/>
		<path class="st0" d="M355.6,323.9L300.8,269c-8.2,12.7-19,23.5-31.7,31.7l54.9,54.9c8.8,8.8,23,8.8,31.7,0
			C364.4,346.9,364.4,332.7,355.6,323.9z"/>
	</g>
</g>
</svg>
