<?xml version="1.0" encoding="utf-8"?>
<!-- Generator: Adobe Illustrator 21.1.0, SVG Export Plug-In . SVG Version: 6.00 Build 0)  -->
<svg version="1.1" id="Capa_1" xmlns="http://www.w3.org/2000/svg" xmlns:xlink="http://www.w3.org/1999/xlink" x="0px" y="0px"
	 viewBox="0 0 388.4 388.4" style="enable-background:new 0 0 388.4 388.4;" xml:space="preserve">
<style type="text/css">
	.st0{fill:#FFFFFF;}
</style>
<path class="st0" d="M266.7,271.7c0,2.8-2.2,5-5,5h-8H237H115.7c-9.4,0-17.1-7.7-17.1-17.1v-18.8c0-9.4,7.7-17.1,17.1-17.1H237h16.7
	h8c2.8,0,5,2.2,5,5s-2.2,5-5,5h-3v32.9h3C264.4,266.7,266.7,268.9,266.7,271.7z M288.1,212.3c0,2.8-2.2,5-5,5h-7.5h-17.2H157.8
	c-8.8,0-15.9-7.1-15.9-15.9v-13.3c0-8.8,7.1-15.9,15.9-15.9h100.6h17.2h7.5c2.8,0,5,2.2,5,5s-2.2,5-5,5h-2.5v25.1h2.5
	C285.8,207.3,288.1,209.5,288.1,212.3z M157.8,207.3h100.6h12.2v-25.1h-12.2H157.8c-3.2,0-5.9,2.6-5.9,5.9v13.3
	C151.9,204.7,154.6,207.3,157.8,207.3z M294,111.7h-42.8h-114H94.4c-2.8,0-5,2.2-5,5s2.2,5,5,5h4.3v42.8c-2.3,1.6-3.8,4.2-3.8,7.2
	c0,4.8,3.9,8.8,8.8,8.8s8.8-3.9,8.8-8.8c0-3-1.5-5.6-3.8-7.2v-42.8h23.5v39.4c0,2.8,2.2,5,5,5h114c2.8,0,5-2.2,5-5v-39.4H294
	c2.8,0,5-2.2,5-5S296.8,111.7,294,111.7z"/>
</svg>
