<?xml version="1.0" encoding="utf-8"?>
<!-- Generator: Adobe Illustrator 21.1.0, SVG Export Plug-In . SVG Version: 6.00 Build 0)  -->
<svg version="1.1" id="Capa_1" xmlns="http://www.w3.org/2000/svg" xmlns:xlink="http://www.w3.org/1999/xlink" x="0px" y="0px"
	 viewBox="0 0 388.4 388.4" style="enable-background:new 0 0 388.4 388.4;" xml:space="preserve">
<style type="text/css">
	.st0{fill:#FFFFFF;}
</style>
<path class="st0" d="M103.1,297.7c0,2.8,2.2,5,5,5h8h16.7H254c9.4,0,17.1-7.7,17.1-17.1v-18.8c0-9.4-7.7-17.1-17.1-17.1H132.8h-16.7
	h-8c-2.8,0-5,2.2-5,5c0,2.8,2.2,5,5,5h3v32.9h-3C105.3,292.7,103.1,294.9,103.1,297.7z M81.7,238.3c0,2.8,2.2,5,5,5h7.5h17.2h100.6
	c8.8,0,15.9-7.1,15.9-15.9v-13.3c0-8.8-7.1-15.9-15.9-15.9H111.4H94.2h-7.5c-2.8,0-5,2.2-5,5s2.2,5,5,5h2.5v25.1h-2.5
	C83.9,233.3,81.7,235.5,81.7,238.3z M211.9,233.3H111.4H99.2v-25.1h12.2h100.6c3.2,0,5.9,2.6,5.9,5.9v13.3
	C217.8,230.7,215.2,233.3,211.9,233.3z M274.6,128.5h-94.1v-11.8c5.9,0,11.8-5.3,11.8-11.8V99c0-6.5-5.3-11.8-11.8-11.8h-47.1
	c-6.5,0-11.8,5.3-11.8,11.8v5.9c0,6.5,5.9,11.8,11.8,11.8v47.1c-5.9,0-11.8,5.3-11.8,11.8v5.9c0,6.5,5.3,11.8,11.8,11.8h47.1
	c6.5,0,11.8-5.3,11.8-11.8v-5.9c0-6.5-5.9-11.8-11.8-11.8V152h94.1c6.5,0,11.8-5.3,11.8-11.8S281.1,128.5,274.6,128.5z"/>
</svg>
