<?xml version="1.0" encoding="utf-8"?>
<!-- Generator: Adobe Illustrator 21.1.0, SVG Export Plug-In . SVG Version: 6.00 Build 0)  -->
<svg version="1.1" id="Ebene_1" xmlns="http://www.w3.org/2000/svg" xmlns:xlink="http://www.w3.org/1999/xlink" x="0px" y="0px"
	 viewBox="0 0 319.3 319.7" style="enable-background:new 0 0 319.3 319.7;" xml:space="preserve">
<style type="text/css">
	.st0{fill:#004666;}
</style>
<g id="Full_color">
	<g>
		<path class="st0" d="M196.5,238.9c-3.7-16.9-18.8-29.6-36.8-29.6s-33.1,12.7-36.8,29.6c11.2,5.2,23.7,8.1,36.8,8.1
			C172.9,247,185.3,244.1,196.5,238.9z"/>
		<path class="st0" d="M247.7,159c0-3.5-0.2-6.9-0.6-10.3c-17.3-1.7-34,8.7-39.6,25.9c-5.6,17.2,1.8,35.4,16.8,44.2
			C238.8,203,247.7,182.1,247.7,159z"/>
		<path class="st0" d="M189.3,118.3c14.6,10.6,34.3,9.2,47.2-2.3c-4-7.1-8.9-13.5-14.6-19.2c-12.1-12.1-27.6-20.6-45-24.1
			C169.9,88.6,174.7,107.7,189.3,118.3z"/>
		<path class="st0" d="M82.9,116c12.9,11.5,32.6,12.9,47.2,2.3s19.3-29.7,12.4-45.6c-17.4,3.4-32.9,12-45,24.1
			C91.8,102.5,86.9,108.9,82.9,116z"/>
		<path class="st0" d="M111.8,174.5c-5.6-17.2-22.3-27.6-39.5-25.9c-0.4,3.4-0.6,6.8-0.6,10.3c0,23.1,8.9,44,23.4,59.7
			C110,210,117.4,191.7,111.8,174.5z"/>
	</g>
</g>
<g id="Dimension_Layer">
</g>
</svg>
