<?xml version="1.0" encoding="utf-8"?>
<!-- Generator: Adobe Illustrator 21.1.0, SVG Export Plug-In . SVG Version: 6.00 Build 0)  -->
<svg version="1.1" id="Ebene_1" xmlns="http://www.w3.org/2000/svg" xmlns:xlink="http://www.w3.org/1999/xlink" x="0px" y="0px"
	 viewBox="0 0 16 16" style="enable-background:new 0 0 16 16;" xml:space="preserve">
<g id="Full_color">
	<g>
		<path d="M11.3,15.1C11,13.6,9.6,12.5,8,12.5s-3,1.1-3.3,2.7c1,0.5,2.1,0.7,3.3,0.7C9.2,15.9,10.3,15.6,11.3,15.1z"/>
		<path d="M15.9,7.9c0-0.3,0-0.6-0.1-0.9c-1.6-0.2-3.1,0.8-3.6,2.3c-0.5,1.6,0.2,3.2,1.5,4C15.1,11.9,15.9,10,15.9,7.9z"/>
		<path d="M10.7,4.2c1.3,1,3.1,0.8,4.3-0.2c-0.4-0.6-0.8-1.2-1.3-1.7c-1.1-1.1-2.5-1.9-4.1-2.2C8.9,1.6,9.4,3.3,10.7,4.2z"/>
		<path d="M1.1,4c1.2,1,2.9,1.2,4.3,0.2s1.7-2.7,1.1-4.1c-1.6,0.3-3,1.1-4.1,2.2C1.9,2.8,1.4,3.4,1.1,4z"/>
		<path d="M3.7,9.3C3.2,7.8,1.7,6.8,0.1,7c0,0.3-0.1,0.6-0.1,0.9c0,2.1,0.8,4,2.1,5.4C3.5,12.5,4.2,10.9,3.7,9.3z"/>
	</g>
</g>
<g id="Dimension_Layer">
</g>
</svg>
