<?xml version="1.0" encoding="utf-8"?>
<!-- Generator: Adobe Illustrator 19.1.0, SVG Export Plug-In . SVG Version: 6.00 Build 0)  -->
<!DOCTYPE svg PUBLIC "-//W3C//DTD SVG 1.1//EN" "http://www.w3.org/Graphics/SVG/1.1/DTD/svg11.dtd">
<svg version="1.1" id="Capa_1" xmlns="http://www.w3.org/2000/svg" xmlns:xlink="http://www.w3.org/1999/xlink" x="0px" y="0px"
	 width="512px" height="512px" viewBox="-223 25 512 512" style="enable-background:new -223 25 512 512;" xml:space="preserve">
<style type="text/css">
	.st0{fill:#FFFFFF;}
</style>
<g>
	<g id="Layer_1_110_">
		<g>
			<path class="st0" d="M-0.2,239.8L-16,224.9c1.8-3.3,3-7.1,3-11.2c0-12.9-10.5-23.4-23.4-23.4s-23.4,10.4-23.4,23.4
				c0,12.9,10.5,23.4,23.4,23.4c4.6,0,8.8-1.4,12.4-3.6l15.7,14.9C-5.9,245.2-3.2,242.4-0.2,239.8z"/>
			<path class="st0" d="M66.5,238l20.9-35.2c2.1,0.6,4.2,1,6.4,1c12.9,0,23.4-10.5,23.4-23.4c0-12.9-10.5-23.4-23.4-23.4
				c-12.9,0-23.4,10.4-23.4,23.4c0,6.4,2.6,12.2,6.8,16.4l-20.9,35.1C59.9,233.6,63.3,235.6,66.5,238z"/>
			<path class="st0" d="M138.7,267.5c-10.1,0-18.6,6.4-21.9,15.3l-29.1-2.9c0,0.2,0,0.4,0,0.6c0,3.8-0.4,7.5-1.2,11.1l29.1,2.9
				c1.8,11.2,11.4,19.7,23,19.7c12.9,0,23.4-10.4,23.4-23.4C162,277.9,151.6,267.5,138.7,267.5z"/>
			<path class="st0" d="M58.4,359.3l-6.5-28.4c-3.7,1.3-7.5,2.2-11.5,2.7l6.5,28.4c-7.5,3.9-12.6,11.6-12.6,20.6
				c0,12.9,10.4,23.4,23.4,23.4c12.9,0,23.4-10.4,23.4-23.4C81.1,370,71,359.7,58.4,359.3z"/>
			<path class="st0" d="M-17.9,291.8l-36.2,12.1c-4.2-6.4-11.4-10.6-19.6-10.6c-12.9,0-23.4,10.5-23.4,23.4
				c0,12.9,10.4,23.4,23.4,23.4c12.9,0,23.4-10.5,23.4-23.4c0-0.5-0.1-1-0.2-1.6l36.3-12.2C-15.7,299.4-17,295.7-17.9,291.8z"/>
			<circle class="st0" cx="34.3" cy="280.5" r="40.1"/>
		</g>
	</g>
</g>
</svg>
